<?xml version="1.0" encoding="UTF-8"?><svg xmlns="http://www.w3.org/2000/svg" xmlns:xlink="http://www.w3.org/1999/xlink" viewBox="0 0 500 500"><defs><style>.h{fill:#f36928;}.h,.i,.j{stroke-width:0px;}.k{clip-path:url(#d);}.i{fill:none;}.l{clip-path:url(#b);}.m{clip-path:url(#e);}.n{clip-path:url(#c);}.j{fill:#304b2a;}</style><clipPath id="b"><rect class="i" x="8.22" y="154.67" width="154.56" height="162.01"/></clipPath><clipPath id="c"><rect class="i" x="8.22" y="154.67" width="154.56" height="162.01"/></clipPath><clipPath id="d"><rect class="i" x="8.22" y="154.67" width="154.56" height="162.01"/></clipPath><clipPath id="e"><rect class="i" x="8.22" y="154.67" width="154.56" height="162.01"/></clipPath></defs><g id="a"><path class="h" d="M184.38,270.18c-.48,0-.92-.08-1.33-.24-.41-.16-.76-.38-1.05-.68-.3-.29-.53-.63-.7-1.02-.17-.39-.25-.82-.25-1.29s.08-.9.25-1.29c.17-.39.4-.73.7-1.02.3-.29.65-.52,1.06-.67.41-.16.85-.24,1.33-.24s.93.08,1.35.25c.41.17.76.41,1.05.73l-.58.57c-.24-.25-.51-.44-.81-.56-.3-.12-.62-.18-.96-.18s-.68.06-.99.18c-.3.12-.57.29-.79.5-.22.22-.39.47-.52.77s-.18.62-.18.97.06.67.18.97.3.55.52.77c.22.22.48.38.79.5.3.12.63.18.99.18s.66-.06.96-.18c.3-.12.57-.31.81-.57l.58.57c-.29.32-.64.57-1.05.74-.41.17-.86.25-1.35.25Z"/><path class="h" d="M192.96,270.18c-.48,0-.93-.08-1.34-.24s-.77-.39-1.07-.68-.53-.63-.7-1.02c-.17-.39-.25-.82-.25-1.28s.08-.89.25-1.28c.17-.39.4-.73.7-1.02s.65-.52,1.06-.68c.41-.16.85-.24,1.34-.24s.92.08,1.33.24c.41.16.76.38,1.06.67.3.29.53.63.7,1.03.17.39.25.82.25,1.28s-.08.9-.25,1.29c-.17.39-.4.73-.7,1.02-.3.29-.65.52-1.06.68-.41.16-.85.24-1.33.24ZM192.95,269.38c.35,0,.68-.06.98-.18s.55-.29.77-.51c.22-.22.39-.47.51-.77.12-.29.18-.62.18-.96s-.06-.67-.18-.96c-.12-.29-.29-.55-.51-.77s-.48-.39-.77-.51-.62-.18-.98-.18-.67.06-.97.18-.56.29-.78.51c-.22.22-.39.48-.52.77s-.18.61-.18.96.06.67.18.96.29.55.52.77c.22.22.48.39.78.51s.62.18.97.18Z"/><path class="h" d="M199.82,270.11v-6.3h.74l4.17,5.17h-.39v-5.17h.9v6.3h-.74l-4.17-5.17h.39v5.17h-.9Z"/><path class="h" d="M209.27,270.11v-6.3h4.45v.78h-3.55v4.73h3.67v.78h-4.57ZM210.09,267.29v-.76h3.24v.76h-3.24Z"/><path class="h" d="M220.26,270.18c-.48,0-.92-.08-1.33-.24-.41-.16-.76-.38-1.05-.68s-.53-.63-.7-1.02c-.17-.39-.25-.82-.25-1.29s.08-.9.25-1.29c.17-.39.4-.73.7-1.02.3-.29.65-.52,1.06-.67.41-.16.85-.24,1.33-.24s.93.08,1.34.25.76.41,1.05.73l-.58.57c-.24-.25-.51-.44-.81-.56-.3-.12-.62-.18-.96-.18s-.68.06-.99.18-.57.29-.79.5c-.22.22-.39.47-.52.77s-.18.62-.18.97.06.67.18.97.29.55.52.77c.22.22.48.38.79.5s.63.18.99.18.66-.06.96-.18c.3-.12.57-.31.81-.57l.58.57c-.29.32-.64.57-1.05.74s-.86.25-1.35.25Z"/><path class="h" d="M227.25,270.11v-5.52h-2.16v-.78h5.21v.78h-2.16v5.52h-.89Z"/><path class="h" d="M232.47,270.11l2.85-6.3h.89l2.86,6.3h-.94l-2.55-5.8h.36l-2.55,5.8h-.93ZM233.69,268.54l.24-.72h3.55l.26.72h-4.05Z"/><path class="h" d="M242.16,270.11v-6.3h.74l4.17,5.17h-.39v-5.17h.9v6.3h-.74l-4.17-5.17h.39v5.17h-.9Z"/><path class="h" d="M251.6,270.11v-6.3h2.65c.67,0,1.26.13,1.78.4.51.26.91.63,1.2,1.11s.43,1.02.43,1.65-.14,1.17-.43,1.65-.68.84-1.2,1.11c-.51.26-1.11.4-1.78.4h-2.65ZM252.5,269.33h1.7c.52,0,.97-.1,1.35-.3s.68-.48.89-.83c.21-.36.31-.77.31-1.24s-.1-.89-.31-1.24c-.21-.35-.51-.63-.89-.83-.38-.2-.83-.3-1.35-.3h-1.7v4.73Z"/><path class="h" d="M264.02,270.18c-.48,0-.93-.08-1.34-.24s-.77-.39-1.07-.68-.53-.63-.7-1.02c-.17-.39-.25-.82-.25-1.28s.08-.89.25-1.28c.17-.39.4-.73.7-1.02s.65-.52,1.06-.68c.41-.16.85-.24,1.34-.24s.92.08,1.33.24c.41.16.76.38,1.06.67.3.29.53.63.7,1.03.17.39.25.82.25,1.28s-.08.9-.25,1.29c-.17.39-.4.73-.7,1.02-.3.29-.65.52-1.06.68-.41.16-.85.24-1.33.24ZM264.02,269.38c.35,0,.68-.06.98-.18s.55-.29.77-.51c.22-.22.39-.47.51-.77.12-.29.18-.62.18-.96s-.06-.67-.18-.96c-.12-.29-.29-.55-.51-.77s-.48-.39-.77-.51-.62-.18-.98-.18-.67.06-.97.18-.56.29-.78.51c-.22.22-.39.48-.52.77s-.18.61-.18.96.06.67.18.96.29.55.52.77c.22.22.48.39.78.51s.62.18.97.18Z"/><path class="h" d="M275.45,270.11v-6.3h4.45v.78h-3.55v4.73h3.67v.78h-4.57ZM276.26,267.29v-.76h3.24v.76h-3.24Z"/><path class="h" d="M283.62,270.11v-6.3h2.65c.67,0,1.26.13,1.78.4.51.26.91.63,1.2,1.11s.43,1.02.43,1.65-.14,1.17-.43,1.65-.68.84-1.2,1.11c-.51.26-1.11.4-1.78.4h-2.65ZM284.52,269.33h1.7c.52,0,.97-.1,1.35-.3s.68-.48.89-.83c.21-.36.31-.77.31-1.24s-.1-.89-.31-1.24c-.21-.35-.51-.63-.89-.83-.38-.2-.83-.3-1.35-.3h-1.7v4.73Z"/><path class="h" d="M295.8,270.18c-.83,0-1.48-.24-1.95-.71-.47-.47-.71-1.17-.71-2.08v-3.58h.9v3.55c0,.7.15,1.21.46,1.54.31.32.75.49,1.31.49s1.01-.16,1.32-.49c.31-.32.46-.84.46-1.54v-3.55h.87v3.58c0,.91-.24,1.6-.71,2.08-.47.47-1.12.71-1.96.71Z"/><path class="h" d="M305.27,270.18c-.48,0-.92-.08-1.33-.24-.41-.16-.76-.38-1.05-.68s-.53-.63-.7-1.02c-.17-.39-.25-.82-.25-1.29s.08-.9.25-1.29c.17-.39.4-.73.7-1.02.3-.29.65-.52,1.06-.67.41-.16.85-.24,1.33-.24s.93.08,1.34.25.76.41,1.05.73l-.58.57c-.24-.25-.51-.44-.81-.56-.3-.12-.62-.18-.96-.18s-.68.06-.99.18-.57.29-.79.5c-.22.22-.39.47-.52.77s-.18.62-.18.97.06.67.18.97.29.55.52.77c.22.22.48.38.79.5s.63.18.99.18.66-.06.96-.18c.3-.12.57-.31.81-.57l.58.57c-.29.32-.64.57-1.05.74s-.86.25-1.35.25Z"/><path class="h" d="M310.06,270.11l2.85-6.3h.89l2.86,6.3h-.94l-2.55-5.8h.36l-2.55,5.8h-.93ZM311.27,268.54l.24-.72h3.55l.26.72h-4.05Z"/><path class="h" d="M322.56,270.18c-.48,0-.92-.08-1.33-.24-.41-.16-.76-.38-1.05-.68s-.53-.63-.7-1.02c-.17-.39-.25-.82-.25-1.29s.08-.9.25-1.29c.17-.39.4-.73.7-1.02.3-.29.65-.52,1.06-.67.41-.16.85-.24,1.33-.24s.93.08,1.34.25.76.41,1.05.73l-.58.57c-.24-.25-.51-.44-.81-.56-.3-.12-.62-.18-.96-.18s-.68.06-.99.18-.57.29-.79.5c-.22.22-.39.47-.52.77s-.18.62-.18.97.06.67.18.97.29.55.52.77c.22.22.48.38.79.5s.63.18.99.18.66-.06.96-.18c.3-.12.57-.31.81-.57l.58.57c-.29.32-.64.57-1.05.74s-.86.25-1.35.25ZM322.28,272.13c-.16,0-.3-.02-.43-.05-.13-.03-.25-.08-.37-.15l.19-.44c.1.05.19.09.29.12.1.02.21.04.32.04.17,0,.3-.03.38-.09.08-.06.12-.15.12-.27s-.04-.19-.12-.26c-.08-.06-.21-.09-.39-.09h-.24l.22-.88h.5l-.13.51c.26.02.45.1.58.24.13.14.2.31.2.5,0,.25-.1.45-.31.6-.2.15-.47.22-.81.22Z"/><path class="h" d="M327.35,270.11l2.85-6.3h.89l2.86,6.3h-.94l-2.55-5.8h.36l-2.55,5.8h-.93ZM328.56,268.54l.24-.72h3.55l.26.72h-4.05ZM331.35,263.32c-.16,0-.3-.03-.43-.1-.12-.07-.23-.14-.33-.23-.1-.08-.19-.16-.29-.22-.1-.07-.2-.1-.31-.1-.13,0-.24.06-.32.18s-.12.26-.13.42h-.54c0-.33.09-.61.26-.83.17-.22.39-.34.67-.34.17,0,.31.03.44.1s.23.14.33.22c.1.08.19.16.29.23.1.07.2.1.31.1.13,0,.24-.06.31-.18.08-.12.12-.25.13-.41h.53c0,.32-.09.6-.26.82-.17.23-.39.34-.67.34Z"/><path class="h" d="M339.88,270.18c-.48,0-.93-.08-1.34-.24s-.77-.39-1.07-.68-.53-.63-.7-1.02c-.17-.39-.25-.82-.25-1.28s.08-.89.25-1.28c.17-.39.4-.73.7-1.02s.65-.52,1.06-.68c.41-.16.85-.24,1.34-.24s.92.08,1.33.24c.41.16.76.38,1.06.67.3.29.53.63.7,1.03.17.39.25.82.25,1.28s-.08.9-.25,1.29c-.17.39-.4.73-.7,1.02-.3.29-.65.52-1.06.68-.41.16-.85.24-1.33.24ZM339.87,269.38c.35,0,.68-.06.98-.18s.55-.29.77-.51c.22-.22.39-.47.51-.77.12-.29.18-.62.18-.96s-.06-.67-.18-.96c-.12-.29-.29-.55-.51-.77s-.48-.39-.77-.51-.62-.18-.98-.18-.67.06-.97.18-.56.29-.78.51c-.22.22-.39.48-.52.77s-.18.61-.18.96.06.67.18.96.29.55.52.77c.22.22.48.39.78.51s.62.18.97.18Z"/><path class="h" d="M351.3,270.11v-6.3h4.45v.78h-3.55v4.73h3.67v.78h-4.57ZM352.11,267.29v-.76h3.24v.76h-3.24Z"/><path class="h" d="M365.28,270.11v-5.52h-2.16v-.78h5.21v.78h-2.16v5.52h-.89Z"/><path class="h" d="M371.46,270.11v-6.3h2.46c.82,0,1.46.19,1.93.58.47.39.7.93.7,1.62,0,.46-.11.85-.32,1.17s-.51.58-.9.75c-.39.17-.86.26-1.41.26h-1.96l.4-.41v2.33h-.9ZM372.36,267.87l-.4-.44h1.93c.58,0,1.01-.12,1.31-.37s.45-.6.45-1.05-.15-.8-.45-1.04c-.3-.25-.73-.37-1.31-.37h-1.93l.4-.45v3.73ZM375.67,270.11l-1.6-2.29h.96l1.62,2.29h-.98Z"/><path class="h" d="M379.19,270.11l2.85-6.3h.89l2.86,6.3h-.94l-2.55-5.8h.36l-2.55,5.8h-.93ZM380.4,268.54l.24-.72h3.55l.26.72h-4.05Z"/><path class="h" d="M388.87,270.11v-6.3h.74l4.17,5.17h-.39v-5.17h.9v6.3h-.74l-4.17-5.17h.39v5.17h-.9Z"/><path class="h" d="M400.16,270.18c-.48,0-.94-.07-1.38-.22-.44-.15-.78-.34-1.04-.57l.33-.7c.24.21.55.38.92.52.37.14.76.21,1.16.21.37,0,.66-.04.89-.13.23-.08.4-.2.5-.35.11-.15.16-.31.16-.5,0-.22-.07-.39-.21-.52-.14-.13-.32-.24-.55-.32-.22-.08-.47-.15-.74-.21-.27-.06-.54-.13-.81-.21-.27-.08-.52-.18-.75-.31s-.41-.29-.54-.51c-.14-.21-.21-.49-.21-.82s.08-.62.26-.9c.17-.27.44-.49.79-.66.36-.17.81-.25,1.36-.25.37,0,.73.05,1.09.14.36.1.67.23.94.41l-.3.72c-.27-.18-.55-.31-.86-.39-.3-.08-.59-.12-.87-.12-.35,0-.64.05-.87.14-.23.09-.39.21-.5.36-.11.15-.16.32-.16.5,0,.22.07.4.21.53.14.13.32.24.55.32.23.08.47.15.74.21.27.06.54.13.81.21.27.08.52.18.75.31.22.13.41.29.54.5.14.21.21.48.21.81s-.09.61-.26.89c-.17.27-.44.49-.81.66s-.82.25-1.37.25Z"/><path class="h" d="M406.05,270.11v-6.3h4.45v.78h-3.55v5.52h-.9ZM406.86,267.57v-.77h3.25v.77h-3.25Z"/><path class="h" d="M416.75,270.18c-.48,0-.93-.08-1.34-.24s-.77-.39-1.07-.68-.53-.63-.7-1.02c-.17-.39-.25-.82-.25-1.28s.08-.89.25-1.28c.17-.39.4-.73.7-1.02s.65-.52,1.06-.68c.41-.16.85-.24,1.34-.24s.92.08,1.33.24c.41.16.76.38,1.06.67.3.29.53.63.7,1.03.17.39.25.82.25,1.28s-.08.9-.25,1.29c-.17.39-.4.73-.7,1.02-.3.29-.65.52-1.06.68-.41.16-.85.24-1.33.24ZM416.74,269.38c.35,0,.68-.06.98-.18s.55-.29.77-.51c.22-.22.39-.47.51-.77.12-.29.18-.62.18-.96s-.06-.67-.18-.96c-.12-.29-.29-.55-.51-.77s-.48-.39-.77-.51-.62-.18-.98-.18-.67.06-.97.18-.56.29-.78.51c-.22.22-.39.48-.52.77s-.18.61-.18.96.06.67.18.96.29.55.52.77c.22.22.48.39.78.51s.62.18.97.18Z"/><path class="h" d="M423.61,270.11v-6.3h2.46c.82,0,1.46.19,1.93.58.47.39.7.93.7,1.62,0,.46-.11.85-.32,1.17s-.51.58-.9.75c-.39.17-.86.26-1.41.26h-1.96l.4-.41v2.33h-.9ZM424.51,267.87l-.4-.44h1.93c.58,0,1.01-.12,1.31-.37s.45-.6.45-1.05-.15-.8-.45-1.04c-.3-.25-.73-.37-1.31-.37h-1.93l.4-.45v3.73ZM427.82,270.11l-1.6-2.29h.96l1.62,2.29h-.98Z"/><path class="h" d="M432.3,270.11v-6.3h.74l2.83,4.76h-.4l2.79-4.76h.74v6.3s-.85,0-.85,0v-4.94s.2,0,.2,0l-2.48,4.18h-.41l-2.5-4.18h.22v4.94h-.86Z"/><path class="h" d="M442.08,270.11l2.85-6.3h.89l2.86,6.3h-.94l-2.55-5.8h.36l-2.55,5.8h-.93ZM443.29,268.54l.24-.72h3.55l.26.72h-4.05Z"/><path class="h" d="M454.58,270.18c-.48,0-.92-.08-1.33-.24-.41-.16-.76-.38-1.05-.68s-.53-.63-.7-1.02c-.17-.39-.25-.82-.25-1.29s.08-.9.25-1.29c.17-.39.4-.73.7-1.02.3-.29.65-.52,1.06-.67.41-.16.85-.24,1.33-.24s.93.08,1.34.25.76.41,1.05.73l-.58.57c-.24-.25-.51-.44-.81-.56-.3-.12-.62-.18-.96-.18s-.68.06-.99.18-.57.29-.79.5c-.22.22-.39.47-.52.77s-.18.62-.18.97.06.67.18.97.29.55.52.77c.22.22.48.38.79.5s.63.18.99.18.66-.06.96-.18c.3-.12.57-.31.81-.57l.58.57c-.29.32-.64.57-1.05.74s-.86.25-1.35.25ZM454.3,272.13c-.16,0-.3-.02-.43-.05-.13-.03-.25-.08-.37-.15l.19-.44c.1.05.19.09.29.12.1.02.21.04.32.04.17,0,.3-.03.38-.09.08-.06.12-.15.12-.27s-.04-.19-.12-.26c-.08-.06-.21-.09-.39-.09h-.24l.22-.88h.5l-.13.51c.26.02.45.1.58.24.13.14.2.31.2.5,0,.25-.1.45-.31.6-.2.15-.47.22-.81.22Z"/><path class="h" d="M459.37,270.11l2.85-6.3h.89l2.86,6.3h-.94l-2.55-5.8h.36l-2.55,5.8h-.93ZM460.58,268.54l.24-.72h3.55l.26.72h-4.05ZM463.37,263.32c-.16,0-.3-.03-.43-.1-.12-.07-.23-.14-.33-.23-.1-.08-.19-.16-.29-.22-.1-.07-.2-.1-.31-.1-.13,0-.24.06-.32.18s-.12.26-.13.42h-.54c0-.33.09-.61.26-.83.17-.22.39-.34.67-.34.17,0,.31.03.44.1s.23.14.33.22c.1.08.19.16.29.23.1.07.2.1.31.1.13,0,.24-.06.31-.18.08-.12.12-.25.13-.41h.53c0,.32-.09.6-.26.82-.17.23-.39.34-.67.34Z"/><path class="h" d="M471.9,270.18c-.48,0-.93-.08-1.34-.24s-.77-.39-1.07-.68-.53-.63-.7-1.02c-.17-.39-.25-.82-.25-1.28s.08-.89.25-1.28c.17-.39.4-.73.7-1.02s.65-.52,1.06-.68c.41-.16.85-.24,1.34-.24s.92.08,1.33.24c.41.16.76.38,1.06.67.3.29.53.63.7,1.03.17.39.25.82.25,1.28s-.08.9-.25,1.29c-.17.39-.4.73-.7,1.02-.3.29-.65.52-1.06.68-.41.16-.85.24-1.33.24ZM471.89,269.38c.35,0,.68-.06.98-.18s.55-.29.77-.51c.22-.22.39-.47.51-.77.12-.29.18-.62.18-.96s-.06-.67-.18-.96c-.12-.29-.29-.55-.51-.77s-.48-.39-.77-.51-.62-.18-.98-.18-.67.06-.97.18-.56.29-.78.51c-.22.22-.39.48-.52.77s-.18.61-.18.96.06.67.18.96.29.55.52.77c.22.22.48.39.78.51s.62.18.97.18Z"/><g class="l"><g class="n"><path class="j" d="M122.48,238.49c-.2-.72-.43-1.56-.59-2.07-1.17-3.67-2.91-7.13-5.18-10.28-.4-.61-.61-.87-.89-1.19-.92-1.18-1.93-2.31-3-3.39-2.53-2.53-5.35-4.64-8.4-6.31-.59-.34-.95-.53-1.45-.75-2.86-1.4-5.89-2.43-9.04-3.05-.33-.1-1.62-.33-2.05-.37-1.66-.22-3.38-.33-5.08-.33-6.89,0-13.57,1.88-19.31,5.39-.19.11-1.7,1.06-2.21,1.46-1.64,1.18-3.2,2.49-4.66,3.95-5.55,5.55-9.12,12.57-10.34,20.17-.02.02-.26,1.71-.28,2.13-.13,1.25-.19,2.52-.19,3.79,0,9.86,3.91,19.1,10.88,26.07,1.46,1.46,2.96,2.81,4.61,3.99.27.21,1.16.8,1.72,1.16,5.84,3.55,12.63,5.66,19.7,5.57,3.34-.04,6.54-.51,9.73-1.26.62-.17,1.83-.48,2.38-.67,5.17-1.88,9.94-4.84,13.97-8.78.35-.34.68-.7,1.01-1.05.29-.3.63-.67.92-1.03,4.06-4.72,6.81-10.31,8.08-16.32.18-.75.41-2.24.46-2.65.23-1.66.34-3.34.34-5.05,0-3.14-.39-6.21-1.14-9.17M116.85,240.07c-1.93-2.83-4.12-5.5-6.56-7.97-.53-.54-1.08-1.06-1.64-1.57,4.04,1.58,7.85,3.64,11.35,6.11-.83,1.06-1.89,2.23-3.16,3.43M115.93,240.92c-1.86,1.68-4.08,3.41-6.54,5.04-.38-5.62-1.62-11.09-3.68-16.31,3.91,3.25,7.36,7.05,10.22,11.28M120.11,235.16c-3-2.05-6.19-3.79-9.56-5.22-1.49-.63-3-1.19-4.52-1.68-.07-.05-.13-.11-.2-.16,3.03-.88,6.18-1.49,9.4-1.82,2.02,2.69,3.68,5.68,4.88,8.88M114.37,225.22c-3,.35-6,.83-8.89,1.66,0-.25-.06-.52-.06-.77,0-.71-.05-1.37-.07-2.08-.09-2.39-.33-4.93-.72-7.26,3.67,2.15,7.07,5.18,9.75,8.45M105.18,231.72c1.67,4.7,2.71,9.79,3,15.02-2.71,1.7-5.67,3.25-8.75,4.46.62-1.21,1.2-2.44,1.74-3.7,2.04-4.82,3.3-10.08,4.01-15.78M108.27,249.79c0,3.44-.33,6.81-.95,10.08-1.13-1.37-2.33-2.69-3.6-3.96-1.25-1.25-2.56-2.44-3.92-3.56,1.79-.77,5.07-2.3,8.43-4.29.02.57.03,1.15.03,1.72M89.24,225.66c-2.08,0-4.2.08-6.25.3,1.21-2.22,2.57-4.35,4.08-6.36,5.64,1.7,10.88,4.31,15.58,7.68-4.38-1.11-8.81-1.62-13.41-1.62M101.33,228.26c-.67.25-1.34.52-2.01.8-3.32,1.41-6.48,3.12-9.44,5.13-1.52-2.01-3.18-3.91-4.98-5.72-.45-.45-.9-.88-1.37-1.31,1.85-.19,3.73-.29,5.63-.29,4.18,0,8.25.48,12.16,1.39M88.84,234.92c-2.48,1.75-4.85,3.66-6.97,5.91-.41.43-.83.85-1.24,1.28-5.08-1.52-10.22-2.3-15.61-2.24-4.11.05-8.3.47-12.3,1.3,7.89-7.31,17.98-12.29,29.15-13.81,2.55,2.29,4.89,4.82,6.96,7.56M89.47,235.95c2.42,2.68,5.98,9.34,7.44,14.17-3.3-2.38-6.86-4.38-10.64-5.98-1.41-.6-2.84-1.13-4.29-1.61,2.19-2.48,4.7-4.63,7.49-6.59M96.67,245.93c-1.61-3.81-3.63-7.39-6.03-10.71,3.95-2.68,8.27-4.85,12.87-6.4.19.05.37.1.56.16.03.06.05.13.08.19-.43,7.65-2.47,14.87-5.78,21.34-.5-1.54-1.06-3.07-1.7-4.57M103.3,216.11c.62,3.25.94,6.59.94,10.01,0,.04,0,.09,0,.13-2.27-4.79-5.21-9.2-8.77-13.15,2.75.7,5.38,1.71,7.83,3.01M93.32,212.67c3.67,3.83,6.78,8.19,9.2,12.97-3.03-2.08-6.27-3.86-9.68-5.3-1.63-.69-3.27-1.29-4.93-1.81,1.65-2.09,3.47-4.05,5.42-5.85M86.76,212.06c1.72,0,3.39.1,5.04.32-.86.87-2.96,3.08-5.02,5.64-.04.04-.07.09-.11.13-4.87-1.4-9.9-2.09-15.09-2.09-.39,0-.97.01-1.35.02,4.92-2.56,10.61-4.02,16.53-4.02M71.51,217.32c4.96,0,9.76.67,14.32,1.92-1.65,2.19-3.08,4.47-4.07,6.34-3.95-3.26-8.3-5.99-12.94-8.21.86-.04,1.81-.06,2.69-.06M67.08,217.93c4.88,2.16,9.41,5.01,13.54,8.35-4.4.69-8.7,1.91-12.83,3.66-5.9,2.49-11.13,5.94-15.94,10.32,1.97-9.28,7.57-17.24,15.23-22.32M65.87,276.56c-8.96-6.48-14.79-17.02-14.79-28.89,0-1.65.12-3.28.33-4.87,4.31-1.12,8.81-1.71,13.47-1.71,5.13,0,10.11.72,14.81,2.07-4.09,4.47-7.26,9.48-9.65,15.15-2.46,5.82-3.81,11.94-4.16,18.26M81,243.56c5.9,1.77,11.51,4.58,16.5,8.58-6.55,11.77-17.4,20.83-30.41,25.05.54-12.96,5.67-24.71,13.91-33.62M97.88,281.41c-3.49,1.15-7.3,1.83-11.17,1.83-6.76,0-13.07-1.99-18.51-5.17,1.25-.43,2.57-.89,3.8-1.41,6.54-2.77,12.37-6.67,17.41-11.71,3.36-3.36,6.3-7.16,8.66-11.22,1.12,4.32,1.67,8.91,1.67,13.57,0,4.93-.61,9.56-1.86,14.1M99.21,253.33c2.84,2.37,5.46,5.14,7.76,8.04-1.39,6.21-3.84,12.13-7.17,17.32.78-3.72,1.18-7.52,1.18-11.39,0-4.69-.62-9.51-1.77-13.98M99.86,280.76c2.06-3.01,3.89-6.2,5.32-9.58,1.15-2.73,2.09-5.65,2.78-8.51,2.08,2.68,3.83,5.58,5.26,8.67-3.63,4.04-8.25,7.36-13.36,9.41M114.14,270.42c-1.62-3.28-3.56-6.38-5.79-9.26.78-3.71,1.18-7.51,1.18-11.37,0-.83-.02-1.65-.05-2.47.48-.3.96-.61,1.44-.93,2.2-1.47,4.04-2.98,5.68-4.48,2.2,3.4,4.02,7.07,5.41,10.94-.97,6.62-3.76,12.65-7.85,17.56M122.29,250.1c-.08-.18-.15-.37-.23-.55-1.28-2.97-2.8-5.8-4.55-8.49,1.21-1.15,2.33-2.3,3.43-3.41.93,3.18,1.43,6.54,1.43,10.01,0,.82-.03,1.63-.09,2.44"/></g><g class="k"><path class="j" d="M56.58,260.05c0,2.07-1.68,3.75-3.75,3.75s-3.75-1.68-3.75-3.75,1.68-3.75,3.75-3.75,3.75,1.68,3.75,3.75"/><path class="j" d="M54.89,240.96c0,2.14-1.74,3.88-3.88,3.88s-3.88-1.74-3.88-3.88,1.74-3.88,3.88-3.88,3.88,1.74,3.88,3.88"/><path class="j" d="M109.2,227.79c0,2.59-2.1,4.69-4.69,4.69s-4.69-2.1-4.69-4.69,2.1-4.69,4.69-4.69,4.69,2.1,4.69,4.69"/><path class="j" d="M72.32,216.89c0,2.59-2.1,4.69-4.69,4.69s-4.69-2.1-4.69-4.69,2.1-4.69,4.69-4.69,4.69,2.1,4.69,4.69"/><path class="j" d="M126.63,251.46c0,2.07-1.68,3.75-3.75,3.75s-3.75-1.68-3.75-3.75,1.68-3.75,3.75-3.75,3.75,1.68,3.75,3.75"/><path class="j" d="M87.65,283c0,2.11-1.71,3.82-3.82,3.82s-3.82-1.71-3.82-3.82,1.71-3.82,3.82-3.82,3.82,1.71,3.82,3.82"/><path class="j" d="M103.07,281.69c0,2.21-1.79,4-4,4s-4-1.79-4-4,1.79-4,4-4,4,1.79,4,4"/><path class="j" d="M70.89,277.19c0,2.21-1.79,4-4,4s-4-1.79-4-4,1.79-4,4-4,4,1.79,4,4"/><path class="j" d="M90.07,273.43c0,1.28-1.04,2.31-2.31,2.31s-2.31-1.04-2.31-2.31,1.04-2.31,2.31-2.31,2.31,1.04,2.31,2.31"/><path class="j" d="M116.93,271.6c0,1.55-1.26,2.81-2.81,2.81s-2.81-1.26-2.81-2.81,1.26-2.81,2.81-2.81,2.81,1.26,2.81,2.81"/><path class="j" d="M83.57,242.79c0,1.55-1.26,2.81-2.81,2.81s-2.81-1.26-2.81-2.81,1.26-2.81,2.81-2.81,2.81,1.26,2.81,2.81"/><path class="j" d="M66.35,256.88c0,1.49-1.2,2.69-2.69,2.69s-2.69-1.2-2.69-2.69,1.2-2.69,2.69-2.69,2.69,1.2,2.69,2.69"/><path class="j" d="M123.91,235.82c0,1.59-1.29,2.88-2.88,2.88s-2.88-1.29-2.88-2.88,1.29-2.88,2.88-2.88,2.88,1.29,2.88,2.88"/><path class="j" d="M85.81,226.71c0,2.04-1.65,3.69-3.69,3.69s-3.69-1.65-3.69-3.69,1.65-3.69,3.69-3.69,3.69,1.65,3.69,3.69"/><path class="j" d="M96.68,212.07c0,1.69-1.37,3.06-3.06,3.06s-3.06-1.37-3.06-3.06,1.37-3.06,3.06-3.06,3.06,1.37,3.06,3.06"/><path class="j" d="M75.78,234.37c0,1.07-.87,1.94-1.94,1.94s-1.94-.87-1.94-1.94.87-1.94,1.94-1.94,1.94.87,1.94,1.94"/><path class="j" d="M91.94,234.95c0,1.31-1.06,2.38-2.38,2.38s-2.38-1.06-2.38-2.38,1.06-2.38,2.38-2.38,2.38,1.06,2.38,2.38"/><path class="j" d="M117.67,225.7c0,1.14-.92,2.06-2.06,2.06s-2.06-.92-2.06-2.06.92-2.06,2.06-2.06,2.06.92,2.06,2.06"/><path class="j" d="M105.99,215.63c0,1.28-1.04,2.31-2.31,2.31s-2.31-1.04-2.31-2.31,1.04-2.31,2.31-2.31,2.31,1.04,2.31,2.31"/><path class="j" d="M101.35,251.87c0,1.76-1.43,3.19-3.19,3.19s-3.19-1.43-3.19-3.19,1.43-3.19,3.19-3.19,3.19,1.43,3.19,3.19"/><path class="j" d="M90.17,254.2c0,1-.81,1.81-1.81,1.81s-1.81-.81-1.81-1.81.81-1.81,1.81-1.81,1.81.81,1.81,1.81"/><path class="j" d="M116.69,259.08c0,.79-.64,1.44-1.44,1.44s-1.44-.64-1.44-1.44.64-1.44,1.44-1.44,1.44.64,1.44,1.44"/><path class="j" d="M109.75,261.1c0,1.17-.95,2.13-2.13,2.13s-2.13-.95-2.13-2.13.95-2.13,2.13-2.13,2.13.95,2.13,2.13"/></g><g class="m"><path class="j" d="M93.69,173.92l.97.06c9.3.96,18.17,3.74,26.35,8.28,7.89,4.37,14.91,10.06,20.64,17.12,5.73,7.06,9.94,15.17,12.6,23.79,2.76,8.94,3.58,18.13,2.62,27.44-.97,9.31-3.75,18.18-8.28,26.36-4.37,7.89-10.17,14.8-17.22,20.53-7.06,5.73-15,9.99-23.62,12.65-6.63,2.05-13.48,3.01-20.35,3.01-2.39,0-4.79-.08-7.19-.33-9.3-.96-18.11-3.72-26.28-8.26-7.89-4.37-14.91-10-20.64-17.06-5.73-7.06-10.02-15.06-12.68-23.68-2.76-8.94-3.67-18.42-2.71-27.72,1.67-16.07,8.75-31.1,20.56-42.39l.73-.67,1.35,1.47c-.44.38-.9.83-1.38,1.34-10.75,10.93-17.56,25.28-19.15,40.55-3.86,37.19,23.52,70.55,59.9,74.24,37.76,3.83,70.81-22.8,74.91-60.15,3.97-36.2-22.18-69.96-59.34-74.35-.67-.08-1.33-.19-1.94-.19l.15-2.03Z"/><path class="j" d="M84.47,159.09c-5.95.21-13.01,1.3-20.38,3.14-6.8,1.7-13.53,4.16-19.93,7.59-6.58,3.52-12.84,8.03-17.79,13.87-8.24,9.73-12.7,22.53-11.77,38.79.32,5.67,1.23,11.78,3.13,18.29.54-.03.71.08,1.25.14,2.58.27,6.32-.06,10.34-1.16,2.54-.7,5.15-1.72,7.74-3.05,5.47-4.29,16.42-12.69,16.42-12.69,0,0,2.91-2.87,7.52-8.95,3.93-5.18,8.63-12.75,13.55-21.74,4.47-8.16,6.9-14.76,8.65-20.34,2.33-7.48,1.93-12.38,1.28-13.9M67.71,200.87c-1.43,2.34-5.16,8.92-10.56,15.7-4.05,5.09-9.14,10.3-14.53,14.14-4.11,2.93-8.5,5.35-12.36,6.58-5.9,1.89-10.72,1.53-10.72,1.53,0,0-4.78-16.51-2.03-30.8,1.49-7.74,4.45-14.16,6.7-17.68,2.31-3.61,4.65-6.22,6.12-7.76,1.83-1.92,5.5-5.18,10.37-8.31,3.05-1.96,6.57-3.82,10.43-5.43,2.55-1.06,5.15-2.1,7.81-2.94,5.42-1.69,10.8-2.92,15.1-3.6,5.21-.82,8.8-.96,8.8-.96,0,0,.15,1.74-.14,4.25-.16,1.35-.54,2.86-.92,4.61-.58,2.69-1.6,5.55-2.85,8.67-3.6,8.95-6.61,14.49-11.21,22"/></g></g><rect class="j" x="166.96" y="159" width="1.04" height="149"/></g><g id="f"><g id="g"><path class="j" d="M211.42,214.9v7.92h-10.95v31.39h-8.53v-31.39h-10.89v-7.92h30.37Z"/><path class="j" d="M245.78,238.93c0,.79-.06,1.59-.17,2.41h-22.91c.34,2.06,1.15,3.64,2.44,4.74,1.29,1.1,2.95,1.66,4.97,1.66,1.38,0,2.64-.31,3.76-.93,1.11-.61,1.98-1.45,2.62-2.52.01-.02.04-.04.06-.04h8.61c-1.12,3.29-3.03,5.92-5.73,7.86-2.69,1.95-5.8,2.92-9.32,2.92-4.49,0-8.24-1.53-11.23-4.6-3-3.07-4.49-6.87-4.49-11.4,0-1.8.25-3.52.76-5.17.51-1.65,1.24-3.12,2.19-4.44.95-1.31,2.07-2.44,3.34-3.4,1.27-.95,2.71-1.69,4.32-2.22,1.61-.52,3.31-.79,5.11-.79,3.03,0,5.75.71,8.17,2.13,2.41,1.42,4.27,3.35,5.56,5.78,1.29,2.43,1.94,5.09,1.94,7.97ZM230.11,230c-1.83,0-3.38.51-4.63,1.52-1.25,1.01-2.11,2.41-2.55,4.21h14.65c-.37-1.24-.92-2.27-1.63-3.12-.71-.84-1.56-1.49-2.55-1.94-.99-.45-2.09-.67-3.28-.67Z"/><path class="j" d="M255.6,219.84v-7.64h8.2v7.64h-8.2ZM255.6,254.2v-30.32h8.2v30.32h-8.2Z"/><path class="j" d="M300.4,223.83h6.12v30.32h-6.46l-.67-2.69c-2.77,2.4-6.05,3.59-9.83,3.59-4.57,0-8.36-1.52-11.37-4.58-3.01-3.05-4.52-6.88-4.52-11.48s1.51-8.37,4.52-11.4c3.01-3.03,6.8-4.55,11.37-4.55,3.85,0,7.17,1.24,9.94,3.71l.9-2.92ZM284.32,244.94c1.55,1.57,3.52,2.36,5.9,2.36s4.35-.79,5.92-2.36c1.57-1.57,2.36-3.56,2.36-5.95s-.79-4.38-2.36-5.95c-1.57-1.57-3.54-2.36-5.9-2.36-1.57,0-2.99.36-4.24,1.09-1.25.73-2.24,1.72-2.95,2.98-.71,1.25-1.07,2.67-1.07,4.24,0,2.4.78,4.38,2.33,5.95Z"/><path class="h" d="M345.04,254.2l-2.75-7.47h-15.66l-2.7,7.47h-8.98l15.38-39.3h8.03l15.89,39.3h-9.21ZM334.43,225.29l-5.11,14.04h10.27l-5.17-14.04Z"/><path class="h" d="M375.36,246.9h3.71v7.3h-5.78c-2.21,0-4.13-.43-5.76-1.29-1.63-.86-2.87-2.11-3.73-3.73-.86-1.63-1.29-3.56-1.29-5.81v-12.91h-4.44c-.58,0-1.06-.47-1.06-1.06v-.26c0-.27.1-.53.29-.73l11.41-12.11c.2-.21.48-.33.77-.33h0c.58,0,1.06.47,1.06,1.06v6.86h8.37v6.57h-8.2v11.85c0,1.46.4,2.59,1.21,3.4.8.81,1.96,1.21,3.45,1.21Z"/><path class="h" d="M388.66,219.84v-7.64h8.2v7.64h-8.2ZM388.66,254.2v-30.32h8.2v30.32h-8.2Z"/><path class="h" d="M428.58,223.88h8.53l-12.07,30.32h-7.58l-12.3-30.32h8.7l7.47,20.32,7.24-20.32Z"/><path class="h" d="M469.12,223.83h6.12v30.32h-6.46l-.67-2.69c-2.77,2.4-6.05,3.59-9.83,3.59-4.57,0-8.36-1.52-11.37-4.58-3.01-3.05-4.52-6.88-4.52-11.48s1.51-8.37,4.52-11.4c3.01-3.03,6.8-4.55,11.37-4.55,3.85,0,7.17,1.24,9.94,3.71l.9-2.92ZM453.03,244.94c1.55,1.57,3.52,2.36,5.9,2.36s4.35-.79,5.92-2.36c1.57-1.57,2.36-3.56,2.36-5.95s-.79-4.38-2.36-5.95c-1.57-1.57-3.54-2.36-5.9-2.36-1.57,0-2.99.36-4.24,1.09-1.25.73-2.24,1.72-2.95,2.98-.71,1.25-1.07,2.67-1.07,4.24,0,2.4.78,4.38,2.33,5.95Z"/></g></g></svg>