<?xml version="1.0" encoding="utf-8"?>
<!-- Generator: Adobe Illustrator 28.2.0, SVG Export Plug-In . SVG Version: 6.00 Build 0)  -->
<svg version="1.1" id="Layer_3" xmlns="http://www.w3.org/2000/svg" xmlns:xlink="http://www.w3.org/1999/xlink" x="0px" y="0px"
	 viewBox="0 0 526.67 212" style="enable-background:new 0 0 526.67 212;" xml:space="preserve">
<style type="text/css">
	.st0{fill:#304B2A;}
	.st1{fill:none;}
	.st2{fill:#F36928;}
</style>
<g>
	<g>
		<path class="st0" d="M136.48,109.82c-0.2-0.72-0.43-1.56-0.59-2.07c-1.17-3.67-2.91-7.13-5.18-10.28
			c-0.4-0.61-0.61-0.87-0.89-1.19c-0.92-1.18-1.93-2.31-3-3.39c-2.53-2.53-5.35-4.64-8.4-6.31c-0.59-0.34-0.95-0.53-1.45-0.75
			c-2.86-1.4-5.89-2.43-9.04-3.05c-0.33-0.1-1.62-0.33-2.05-0.37c-1.66-0.22-3.38-0.33-5.08-0.33c-6.89,0-13.57,1.88-19.31,5.39
			c-0.19,0.11-1.7,1.06-2.21,1.46c-1.64,1.18-3.2,2.49-4.66,3.95c-5.55,5.55-9.12,12.57-10.34,20.17c-0.02,0.02-0.26,1.71-0.28,2.13
			c-0.13,1.25-0.19,2.52-0.19,3.79c0,9.86,3.91,19.1,10.88,26.07c1.46,1.46,2.96,2.81,4.61,3.99c0.27,0.21,1.16,0.8,1.72,1.16
			c5.84,3.55,12.63,5.66,19.7,5.57c3.34-0.04,6.54-0.51,9.73-1.26c0.62-0.17,1.83-0.48,2.38-0.67c5.17-1.88,9.94-4.84,13.97-8.78
			c0.35-0.34,0.68-0.7,1.01-1.05c0.29-0.3,0.63-0.67,0.92-1.03c4.06-4.72,6.81-10.31,8.08-16.32c0.18-0.75,0.41-2.24,0.46-2.65
			c0.23-1.66,0.34-3.34,0.34-5.05C137.63,115.86,137.24,112.79,136.48,109.82 M130.85,111.41c-1.93-2.83-4.12-5.5-6.56-7.97
			c-0.53-0.54-1.08-1.06-1.64-1.57c4.04,1.58,7.85,3.64,11.35,6.11C133.18,109.04,132.11,110.2,130.85,111.41 M129.93,112.26
			c-1.86,1.68-4.08,3.41-6.54,5.04c-0.38-5.62-1.62-11.09-3.68-16.31C123.63,104.24,127.07,108.03,129.93,112.26 M134.11,106.49
			c-3-2.05-6.19-3.79-9.56-5.22c-1.49-0.63-3-1.19-4.52-1.68c-0.07-0.05-0.13-0.11-0.2-0.16c3.03-0.88,6.18-1.49,9.4-1.82
			C131.25,100.3,132.9,103.29,134.11,106.49 M128.37,96.55c-3,0.35-6,0.83-8.89,1.66c0-0.25-0.06-0.52-0.06-0.77
			c0-0.71-0.05-1.37-0.07-2.08c-0.09-2.39-0.33-4.93-0.72-7.26C122.29,90.25,125.69,93.28,128.37,96.55 M119.18,103.06
			c1.67,4.7,2.71,9.79,3,15.02c-2.71,1.7-5.67,3.25-8.75,4.46c0.62-1.21,1.2-2.44,1.74-3.7
			C117.21,114.01,118.47,108.75,119.18,103.06 M122.27,121.13c0,3.44-0.33,6.81-0.95,10.08c-1.13-1.37-2.33-2.69-3.6-3.96
			c-1.25-1.25-2.56-2.44-3.92-3.56c1.79-0.77,5.07-2.3,8.43-4.29C122.26,119.98,122.27,120.55,122.27,121.13 M103.24,97
			c-2.08,0-4.2,0.08-6.25,0.3c1.21-2.22,2.57-4.35,4.08-6.36c5.64,1.7,10.88,4.31,15.58,7.68C112.27,97.51,107.84,97,103.24,97
			 M115.33,99.59c-0.67,0.25-1.34,0.52-2.01,0.8c-3.32,1.41-6.48,3.12-9.44,5.13c-1.52-2.01-3.18-3.91-4.98-5.72
			c-0.45-0.45-0.9-0.88-1.37-1.31c1.85-0.19,3.73-0.29,5.63-0.29C107.35,98.2,111.42,98.68,115.33,99.59 M102.84,106.26
			c-2.48,1.75-4.85,3.66-6.97,5.91c-0.41,0.43-0.83,0.85-1.24,1.28c-5.08-1.52-10.22-2.3-15.61-2.24c-4.11,0.05-8.3,0.47-12.3,1.3
			c7.89-7.31,17.98-12.29,29.15-13.81C98.42,100.99,100.76,103.52,102.84,106.26 M103.47,107.28c2.42,2.68,5.98,9.34,7.44,14.17
			c-3.3-2.38-6.86-4.38-10.64-5.98c-1.41-0.6-2.84-1.13-4.29-1.61C98.17,111.39,100.68,109.24,103.47,107.28 M110.67,117.27
			c-1.61-3.81-3.63-7.39-6.03-10.71c3.95-2.68,8.27-4.85,12.87-6.4c0.19,0.05,0.37,0.1,0.56,0.16c0.03,0.06,0.05,0.13,0.08,0.19
			c-0.43,7.65-2.47,14.87-5.78,21.34C111.87,120.3,111.31,118.77,110.67,117.27 M117.3,87.44c0.62,3.25,0.94,6.59,0.94,10.01
			c0,0.04,0,0.09,0,0.13c-2.27-4.79-5.21-9.2-8.77-13.15C112.22,85.13,114.84,86.15,117.3,87.44 M107.32,84
			c3.67,3.83,6.78,8.19,9.2,12.97c-3.03-2.08-6.27-3.86-9.68-5.3c-1.63-0.69-3.27-1.29-4.93-1.81
			C103.56,87.77,105.37,85.81,107.32,84 M100.76,83.39c1.72,0,3.39,0.1,5.04,0.32c-0.86,0.87-2.96,3.08-5.02,5.64
			c-0.04,0.04-0.07,0.09-0.11,0.13c-4.87-1.4-9.9-2.09-15.09-2.09c-0.39,0-0.97,0.01-1.35,0.02
			C89.15,84.85,94.84,83.39,100.76,83.39 M85.51,88.66c4.96,0,9.76,0.67,14.32,1.92c-1.65,2.19-3.08,4.47-4.07,6.34
			c-3.95-3.26-8.3-5.99-12.94-8.21C83.69,88.67,84.63,88.66,85.51,88.66 M81.08,89.26c4.88,2.16,9.41,5.01,13.54,8.35
			c-4.4,0.69-8.7,1.91-12.83,3.66c-5.9,2.49-11.13,5.94-15.94,10.32C67.82,102.3,73.42,94.34,81.08,89.26 M79.87,147.89
			c-8.96-6.48-14.79-17.02-14.79-28.89c0-1.65,0.12-3.28,0.33-4.87c4.31-1.12,8.81-1.71,13.47-1.71c5.13,0,10.11,0.72,14.81,2.07
			c-4.09,4.47-7.26,9.48-9.65,15.15C81.57,135.46,80.22,141.58,79.87,147.89 M95,114.9c5.9,1.77,11.51,4.58,16.5,8.58
			c-6.55,11.77-17.4,20.83-30.41,25.05C81.63,135.56,86.76,123.81,95,114.9 M111.88,152.74c-3.49,1.15-7.3,1.83-11.17,1.83
			c-6.76,0-13.07-1.99-18.51-5.17c1.25-0.43,2.57-0.89,3.8-1.41c6.54-2.77,12.37-6.67,17.41-11.71c3.36-3.36,6.3-7.16,8.66-11.22
			c1.12,4.32,1.67,8.91,1.67,13.57C113.74,143.57,113.13,148.2,111.88,152.74 M113.21,124.66c2.84,2.37,5.46,5.14,7.76,8.04
			c-1.39,6.21-3.84,12.13-7.17,17.32c0.78-3.72,1.18-7.52,1.18-11.39C114.99,133.95,114.37,129.13,113.21,124.66 M113.86,152.09
			c2.06-3.01,3.89-6.2,5.32-9.58c1.15-2.73,2.09-5.65,2.78-8.51c2.08,2.68,3.83,5.58,5.26,8.67
			C123.6,146.71,118.98,150.04,113.86,152.09 M128.14,141.76c-1.62-3.28-3.56-6.38-5.79-9.26c0.78-3.71,1.18-7.51,1.18-11.37
			c0-0.83-0.02-1.65-0.05-2.47c0.48-0.3,0.96-0.61,1.44-0.93c2.2-1.47,4.04-2.98,5.68-4.48c2.2,3.4,4.02,7.07,5.41,10.94
			C135.02,130.81,132.23,136.84,128.14,141.76 M136.29,121.44c-0.08-0.18-0.15-0.37-0.23-0.55c-1.28-2.97-2.8-5.8-4.55-8.49
			c1.21-1.15,2.33-2.3,3.43-3.41c0.93,3.18,1.43,6.54,1.43,10.01C136.37,119.82,136.34,120.63,136.29,121.44"/>
	</g>
	<g>
		<path class="st0" d="M70.58,131.38c0,2.07-1.68,3.75-3.75,3.75c-2.07,0-3.75-1.68-3.75-3.75c0-2.07,1.68-3.75,3.75-3.75
			C68.9,127.63,70.58,129.31,70.58,131.38"/>
		<path class="st0" d="M68.89,112.29c0,2.14-1.74,3.88-3.88,3.88c-2.14,0-3.88-1.74-3.88-3.88c0-2.14,1.74-3.88,3.88-3.88
			C67.16,108.41,68.89,110.15,68.89,112.29"/>
		<path class="st0" d="M123.2,99.12c0,2.59-2.1,4.69-4.69,4.69s-4.69-2.1-4.69-4.69c0-2.59,2.1-4.69,4.69-4.69
			S123.2,96.53,123.2,99.12"/>
		<path class="st0" d="M86.32,88.22c0,2.59-2.1,4.69-4.69,4.69s-4.69-2.1-4.69-4.69c0-2.59,2.1-4.69,4.69-4.69
			S86.32,85.63,86.32,88.22"/>
		<path class="st0" d="M140.63,122.79c0,2.07-1.68,3.75-3.75,3.75s-3.75-1.68-3.75-3.75c0-2.07,1.68-3.75,3.75-3.75
			S140.63,120.72,140.63,122.79"/>
		<path class="st0" d="M101.65,154.33c0,2.11-1.71,3.82-3.82,3.82c-2.11,0-3.82-1.71-3.82-3.82s1.71-3.82,3.82-3.82
			C99.94,150.51,101.65,152.22,101.65,154.33"/>
		<path class="st0" d="M117.07,153.02c0,2.21-1.79,4-4,4c-2.21,0-4-1.79-4-4s1.79-4,4-4C115.28,149.02,117.07,150.81,117.07,153.02"
			/>
		<path class="st0" d="M84.89,148.52c0,2.21-1.79,4-4,4c-2.21,0-4-1.79-4-4s1.79-4,4-4C83.1,144.52,84.89,146.31,84.89,148.52"/>
		<path class="st0" d="M104.07,144.77c0,1.28-1.04,2.31-2.31,2.31s-2.31-1.04-2.31-2.31s1.04-2.31,2.31-2.31
			S104.07,143.49,104.07,144.77"/>
		<path class="st0" d="M130.93,142.94c0,1.55-1.26,2.81-2.81,2.81c-1.55,0-2.81-1.26-2.81-2.81c0-1.55,1.26-2.81,2.81-2.81
			C129.67,140.12,130.93,141.38,130.93,142.94"/>
		<path class="st0" d="M97.57,114.12c0,1.55-1.26,2.81-2.81,2.81c-1.55,0-2.81-1.26-2.81-2.81s1.26-2.81,2.81-2.81
			C96.31,111.3,97.57,112.56,97.57,114.12"/>
		<path class="st0" d="M80.35,128.21c0,1.49-1.2,2.69-2.69,2.69c-1.49,0-2.69-1.2-2.69-2.69c0-1.49,1.2-2.69,2.69-2.69
			C79.15,125.52,80.35,126.73,80.35,128.21"/>
		<path class="st0" d="M137.91,107.15c0,1.59-1.29,2.88-2.88,2.88s-2.88-1.29-2.88-2.88c0-1.59,1.29-2.88,2.88-2.88
			S137.91,105.56,137.91,107.15"/>
		<path class="st0" d="M99.81,98.04c0,2.04-1.65,3.69-3.69,3.69s-3.69-1.65-3.69-3.69c0-2.04,1.65-3.69,3.69-3.69
			S99.81,96,99.81,98.04"/>
		<path class="st0" d="M110.68,83.4c0,1.69-1.37,3.06-3.06,3.06s-3.06-1.37-3.06-3.06c0-1.69,1.37-3.06,3.06-3.06
			S110.68,81.71,110.68,83.4"/>
		<path class="st0" d="M89.78,105.71c0,1.07-0.87,1.94-1.94,1.94c-1.07,0-1.94-0.87-1.94-1.94c0-1.07,0.87-1.94,1.94-1.94
			C88.91,103.77,89.78,104.63,89.78,105.71"/>
		<path class="st0" d="M105.94,106.28c0,1.31-1.06,2.38-2.38,2.38c-1.31,0-2.38-1.06-2.38-2.38s1.06-2.38,2.38-2.38
			C104.87,103.9,105.94,104.97,105.94,106.28"/>
		<path class="st0" d="M131.67,97.04c0,1.14-0.92,2.06-2.06,2.06s-2.06-0.92-2.06-2.06c0-1.14,0.92-2.06,2.06-2.06
			S131.67,95.9,131.67,97.04"/>
		<path class="st0" d="M119.99,86.96c0,1.28-1.04,2.31-2.31,2.31c-1.28,0-2.31-1.04-2.31-2.31c0-1.28,1.04-2.31,2.31-2.31
			C118.96,84.65,119.99,85.68,119.99,86.96"/>
		<path class="st0" d="M115.35,123.2c0,1.76-1.43,3.19-3.19,3.19s-3.19-1.43-3.19-3.19c0-1.76,1.43-3.19,3.19-3.19
			S115.35,121.44,115.35,123.2"/>
		<path class="st0" d="M104.17,125.53c0,1-0.81,1.81-1.81,1.81c-1,0-1.81-0.81-1.81-1.81s0.81-1.81,1.81-1.81
			C103.36,123.72,104.17,124.53,104.17,125.53"/>
		<path class="st0" d="M130.69,130.41c0,0.79-0.64,1.44-1.44,1.44s-1.44-0.64-1.44-1.44c0-0.79,0.64-1.44,1.44-1.44
			S130.69,129.61,130.69,130.41"/>
		<path class="st0" d="M123.75,132.44c0,1.17-0.95,2.13-2.13,2.13c-1.17,0-2.13-0.95-2.13-2.13s0.95-2.13,2.13-2.13
			C122.8,130.31,123.75,131.26,123.75,132.44"/>
	</g>
	<g>
		<path class="st0" d="M107.69,45.26l0.97,0.06c9.3,0.96,18.17,3.74,26.35,8.28c7.89,4.37,14.91,10.06,20.64,17.12
			c5.73,7.06,9.94,15.17,12.6,23.79c2.76,8.94,3.58,18.13,2.62,27.44c-0.97,9.31-3.75,18.18-8.28,26.36
			c-4.37,7.89-10.17,14.8-17.22,20.53c-7.06,5.73-15,9.99-23.62,12.65c-6.63,2.05-13.48,3.01-20.35,3.01
			c-2.39,0-4.79-0.08-7.19-0.33c-9.3-0.96-18.11-3.72-26.28-8.26c-7.89-4.37-14.91-10-20.64-17.06
			c-5.73-7.06-10.02-15.06-12.68-23.68c-2.76-8.94-3.67-18.42-2.71-27.72c1.67-16.07,8.75-31.1,20.56-42.39l0.73-0.67l1.35,1.47
			c-0.44,0.38-0.9,0.83-1.38,1.34C42.4,78.13,35.59,92.47,34.01,107.74c-3.86,37.19,23.52,70.55,59.9,74.24
			c37.76,3.83,70.81-22.8,74.91-60.15c3.97-36.2-22.18-69.96-59.34-74.35c-0.67-0.08-1.33-0.19-1.94-0.19L107.69,45.26z"/>
		<path class="st0" d="M98.47,30.42c-5.95,0.21-13.01,1.3-20.38,3.14c-6.8,1.7-13.53,4.16-19.93,7.59
			c-6.58,3.52-12.84,8.03-17.79,13.87c-8.24,9.73-12.7,22.53-11.77,38.79c0.32,5.67,1.23,11.78,3.13,18.29
			c0.54-0.03,0.71,0.08,1.25,0.14c2.58,0.27,6.32-0.06,10.34-1.16c2.54-0.7,5.15-1.72,7.74-3.05c5.47-4.29,16.42-12.69,16.42-12.69
			s2.91-2.87,7.52-8.95c3.93-5.18,8.63-12.75,13.55-21.74c4.47-8.16,6.9-14.76,8.65-20.34C99.53,36.84,99.12,31.94,98.47,30.42
			 M81.71,72.2c-1.43,2.34-5.16,8.92-10.56,15.7c-4.05,5.09-9.14,10.3-14.53,14.14c-4.11,2.93-8.5,5.35-12.36,6.58
			c-5.9,1.89-10.72,1.53-10.72,1.53s-4.78-16.51-2.03-30.8c1.49-7.74,4.45-14.16,6.7-17.68c2.31-3.61,4.65-6.22,6.12-7.76
			c1.83-1.92,5.5-5.18,10.37-8.31c3.05-1.96,6.57-3.82,10.43-5.43c2.55-1.06,5.15-2.1,7.81-2.94c5.42-1.69,10.8-2.92,15.1-3.6
			c5.21-0.82,8.8-0.96,8.8-0.96s0.15,1.74-0.14,4.25c-0.16,1.35-0.54,2.86-0.92,4.61c-0.58,2.69-1.6,5.55-2.85,8.67
			C89.32,59.15,86.31,64.69,81.71,72.2"/>
	</g>
</g>
<rect x="180.96" y="30.33" class="st0" width="1.04" height="149"/>
<g>
	<path class="st1" d="M473.05,102.02c-1.57,0-2.98,0.36-4.23,1.09c-1.25,0.73-2.23,1.72-2.94,2.97c-0.71,1.25-1.06,2.66-1.06,4.23
		c0,2.39,0.77,4.37,2.32,5.94c1.55,1.57,3.51,2.35,5.88,2.35c2.37,0,4.34-0.78,5.91-2.35c1.57-1.57,2.35-3.55,2.35-5.94
		c0-2.39-0.78-4.37-2.35-5.94C477.36,102.81,475.4,102.02,473.05,102.02z"/>
	<path class="st1" d="M346.61,102.02c-1.57,0-2.98,0.36-4.23,1.09c-1.25,0.73-2.23,1.72-2.94,2.97c-0.71,1.25-1.06,2.66-1.06,4.23
		c0,2.39,0.77,4.37,2.32,5.94c1.55,1.57,3.51,2.35,5.88,2.35c2.37,0,4.34-0.78,5.91-2.35c1.57-1.57,2.35-3.55,2.35-5.94
		c0-2.39-0.78-4.37-2.35-5.94C350.92,102.81,348.96,102.02,346.61,102.02z"/>
	<path class="st2" d="M355.85,98.1c-2.76-2.46-6.07-3.7-9.91-3.7c-4.55,0-8.33,1.51-11.34,4.54c-3.01,3.02-4.51,6.81-4.51,11.37
		c0,4.59,1.5,8.41,4.51,11.45c3,3.04,6.79,4.56,11.34,4.56c3.77,0,7.04-1.19,9.8-3.58l0.67,2.69h6.44V95.19h-6.1L355.85,98.1z
		 M352.49,116.25c-1.57,1.57-3.54,2.35-5.91,2.35c-2.37,0-4.33-0.78-5.88-2.35c-1.55-1.57-2.32-3.55-2.32-5.94
		c0-1.57,0.35-2.98,1.06-4.23c0.71-1.25,1.69-2.24,2.94-2.97c1.25-0.73,2.66-1.09,4.23-1.09c2.35,0,4.31,0.78,5.88,2.35
		c1.57,1.57,2.35,3.55,2.35,5.94C354.84,112.7,354.05,114.68,352.49,116.25z"/>
	<path class="st2" d="M385.78,117c-0.8-0.8-1.2-1.93-1.2-3.39V101.8h8.18v-6.55h-8.34v-7.9h-1.51l-11.98,12.71v1.74h5.49v12.88
		c0,2.24,0.43,4.17,1.29,5.8c0.86,1.62,2.1,2.87,3.72,3.72c1.62,0.86,3.54,1.29,5.74,1.29h5.77v-7.28h-3.7
		C387.73,118.21,386.58,117.81,385.78,117z"/>
	<rect x="402.27" y="95.25" class="st2" width="8.18" height="30.24"/>
	<rect x="402.27" y="83.6" class="st2" width="8.18" height="7.62"/>
	<polygon class="st2" points="434.64,115.52 427.19,95.25 418.51,95.25 430.77,125.49 438.33,125.49 450.37,95.25 441.86,95.25 	"/>
	<path class="st2" d="M483.19,95.19l-0.9,2.91c-2.76-2.46-6.07-3.7-9.91-3.7c-4.55,0-8.33,1.51-11.34,4.54
		c-3.01,3.02-4.51,6.81-4.51,11.37c0,4.59,1.5,8.41,4.51,11.45c3,3.04,6.79,4.56,11.34,4.56c3.77,0,7.04-1.19,9.8-3.58l0.67,2.69
		h6.44V95.19H483.19z M478.93,116.25c-1.57,1.57-3.54,2.35-5.91,2.35c-2.37,0-4.33-0.78-5.88-2.35c-1.55-1.57-2.32-3.55-2.32-5.94
		c0-1.57,0.35-2.98,1.06-4.23c0.71-1.25,1.69-2.24,2.94-2.97c1.25-0.73,2.66-1.09,4.23-1.09c2.35,0,4.31,0.78,5.88,2.35
		c1.57,1.57,2.35,3.55,2.35,5.94C481.28,112.7,480.5,114.68,478.93,116.25z"/>
</g>
<g>
	<path class="st1" d="M251.14,102.02c-0.99-0.45-2.08-0.67-3.28-0.67c-1.83,0-3.37,0.5-4.62,1.51c-1.25,1.01-2.1,2.41-2.55,4.2
		h14.62c-0.37-1.23-0.92-2.27-1.62-3.11C252.98,103.12,252.13,102.47,251.14,102.02z"/>
	<path class="st1" d="M307.28,102.02c-1.57,0-2.98,0.36-4.23,1.09c-1.25,0.73-2.23,1.72-2.94,2.97c-0.71,1.25-1.06,2.66-1.06,4.23
		c0,2.39,0.77,4.37,2.32,5.94c1.55,1.57,3.51,2.35,5.88,2.35c2.37,0,4.34-0.78,5.91-2.35c1.57-1.57,2.35-3.55,2.35-5.94
		c0-2.39-0.78-4.37-2.35-5.94C311.59,102.81,309.63,102.02,307.28,102.02z"/>
	<polygon class="st0" points="195.06,94.18 205.92,94.18 205.92,125.49 214.43,125.49 214.43,94.18 225.35,94.18 225.35,86.29 
		195.06,86.29 	"/>
	<path class="st0" d="M256.01,96.54c-2.41-1.42-5.12-2.13-8.15-2.13c-1.79,0-3.49,0.26-5.1,0.78c-1.61,0.52-3.04,1.26-4.31,2.21
		c-1.27,0.95-2.38,2.08-3.33,3.39c-0.95,1.31-1.68,2.78-2.18,4.42c-0.5,1.64-0.76,3.36-0.76,5.15c0,4.52,1.49,8.31,4.48,11.37
		c2.99,3.06,6.72,4.59,11.2,4.59c3.51,0,6.61-0.97,9.3-2.91c2.69-1.94,4.59-4.55,5.71-7.84h-8.62c-0.64,1.08-1.51,1.93-2.63,2.55
		c-1.12,0.62-2.37,0.92-3.75,0.92c-2.02,0-3.67-0.55-4.96-1.65c-1.29-1.1-2.1-2.68-2.44-4.73h22.85c0.11-0.82,0.17-1.62,0.17-2.41
		c0-2.87-0.64-5.52-1.93-7.95C260.27,99.88,258.42,97.95,256.01,96.54z M240.7,107.06c0.45-1.79,1.3-3.19,2.55-4.2
		c1.25-1.01,2.79-1.51,4.62-1.51c1.19,0,2.29,0.22,3.28,0.67c0.99,0.45,1.84,1.09,2.55,1.93c0.71,0.84,1.25,1.88,1.62,3.11H240.7z"
		/>
	<rect x="273.01" y="83.6" class="st0" width="8.18" height="7.62"/>
	<rect x="273.01" y="95.25" class="st0" width="8.18" height="30.24"/>
	<path class="st0" d="M317.42,95.19l-0.9,2.91c-2.76-2.46-6.07-3.7-9.91-3.7c-4.55,0-8.33,1.51-11.34,4.54
		c-3.01,3.02-4.51,6.81-4.51,11.37c0,4.59,1.5,8.41,4.51,11.45c3,3.04,6.79,4.56,11.34,4.56c3.77,0,7.04-1.19,9.8-3.58l0.67,2.69
		h6.44V95.19H317.42z M313.16,116.25c-1.57,1.57-3.54,2.35-5.91,2.35c-2.37,0-4.33-0.78-5.88-2.35c-1.55-1.57-2.32-3.55-2.32-5.94
		c0-1.57,0.35-2.98,1.06-4.23c0.71-1.25,1.69-2.24,2.94-2.97c1.25-0.73,2.66-1.09,4.23-1.09c2.35,0,4.31,0.78,5.88,2.35
		c1.57,1.57,2.35,3.55,2.35,5.94C315.51,112.7,314.73,114.68,313.16,116.25z"/>
</g>
<g>
	<polygon class="st1" points="249.78,136.07 248.42,139.16 251.14,139.16 	"/>
	<path class="st1" d="M441.36,138.4c0.3-0.25,0.45-0.6,0.45-1.05c0-0.45-0.15-0.8-0.45-1.04c-0.3-0.25-0.73-0.37-1.31-0.37h-1.53
		v2.83h1.53C440.63,138.77,441.07,138.65,441.36,138.4z"/>
	<polygon class="st1" points="396.5,136.07 395.14,139.16 397.85,139.16 	"/>
	<path class="st1" d="M301.59,136.23c-0.38-0.2-0.83-0.3-1.35-0.3h-1.7v4.73h1.7c0.52,0,0.97-0.1,1.35-0.3s0.68-0.48,0.89-0.83
		c0.21-0.36,0.31-0.77,0.31-1.24c0-0.47-0.1-0.89-0.31-1.24C302.26,136.71,301.97,136.43,301.59,136.23z"/>
	<path class="st1" d="M432.51,136.57c-0.22-0.22-0.48-0.39-0.77-0.51s-0.62-0.18-0.98-0.18c-0.35,0-0.67,0.06-0.97,0.18
		s-0.56,0.29-0.78,0.51c-0.22,0.22-0.39,0.48-0.52,0.77s-0.18,0.61-0.18,0.96c0,0.35,0.06,0.67,0.18,0.96s0.29,0.55,0.52,0.77
		c0.22,0.22,0.48,0.39,0.78,0.51s0.62,0.18,0.97,0.18c0.35,0,0.68-0.06,0.98-0.18s0.55-0.29,0.77-0.51
		c0.22-0.22,0.39-0.47,0.51-0.77c0.12-0.29,0.18-0.62,0.18-0.96c0-0.35-0.06-0.67-0.18-0.96
		C432.9,137.05,432.73,136.8,432.51,136.57z"/>
	<path class="st1" d="M279.78,136.57c-0.22-0.22-0.48-0.39-0.77-0.51s-0.62-0.18-0.98-0.18c-0.35,0-0.67,0.06-0.97,0.18
		s-0.56,0.29-0.78,0.51c-0.22,0.22-0.39,0.48-0.52,0.77s-0.18,0.61-0.18,0.96c0,0.35,0.06,0.67,0.18,0.96s0.29,0.55,0.52,0.77
		c0.22,0.22,0.48,0.39,0.78,0.51s0.62,0.18,0.97,0.18c0.35,0,0.68-0.06,0.98-0.18s0.55-0.29,0.77-0.51
		c0.22-0.22,0.39-0.47,0.51-0.77c0.12-0.29,0.18-0.62,0.18-0.96c0-0.35-0.06-0.67-0.18-0.96C280.17,137.05,280,136.8,279.78,136.57z
		"/>
	<polygon class="st1" points="327.37,136.07 326.01,139.16 328.73,139.16 	"/>
	<path class="st1" d="M389.21,138.4c0.3-0.25,0.45-0.6,0.45-1.05c0-0.45-0.15-0.8-0.45-1.04c-0.3-0.25-0.73-0.37-1.31-0.37h-1.53
		v2.83h1.53C388.48,138.77,388.91,138.65,389.21,138.4z"/>
	<polygon class="st1" points="459.39,136.07 458.03,139.16 460.75,139.16 	"/>
	<polygon class="st1" points="344.66,136.07 343.3,139.16 346.02,139.16 	"/>
	<path class="st1" d="M269.57,136.23c-0.38-0.2-0.83-0.3-1.35-0.3h-1.7v4.73h1.7c0.52,0,0.97-0.1,1.35-0.3s0.68-0.48,0.89-0.83
		c0.21-0.36,0.31-0.77,0.31-1.24c0-0.47-0.1-0.89-0.31-1.24C270.25,136.71,269.95,136.43,269.57,136.23z"/>
	<path class="st1" d="M487.65,136.57c-0.22-0.22-0.48-0.39-0.77-0.51s-0.62-0.18-0.98-0.18c-0.35,0-0.67,0.06-0.97,0.18
		s-0.56,0.29-0.78,0.51c-0.22,0.22-0.39,0.48-0.52,0.77s-0.18,0.61-0.18,0.96c0,0.35,0.06,0.67,0.18,0.96s0.29,0.55,0.52,0.77
		c0.22,0.22,0.48,0.39,0.78,0.51s0.62,0.18,0.97,0.18c0.35,0,0.68-0.06,0.98-0.18s0.55-0.29,0.77-0.51
		c0.22-0.22,0.39-0.47,0.51-0.77c0.12-0.29,0.18-0.62,0.18-0.96c0-0.35-0.06-0.67-0.18-0.96
		C488.04,137.05,487.87,136.8,487.65,136.57z"/>
	<polygon class="st1" points="476.68,136.07 475.32,139.16 478.03,139.16 	"/>
	<path class="st1" d="M208.72,136.57c-0.22-0.22-0.48-0.39-0.77-0.51s-0.62-0.18-0.98-0.18c-0.35,0-0.67,0.06-0.97,0.18
		s-0.56,0.29-0.78,0.51c-0.22,0.22-0.39,0.48-0.52,0.77s-0.18,0.61-0.18,0.96c0,0.35,0.06,0.67,0.18,0.96s0.29,0.55,0.52,0.77
		c0.22,0.22,0.48,0.39,0.78,0.51s0.62,0.18,0.97,0.18c0.35,0,0.68-0.06,0.98-0.18s0.55-0.29,0.77-0.51
		c0.22-0.22,0.39-0.47,0.51-0.77c0.12-0.29,0.18-0.62,0.18-0.96c0-0.35-0.06-0.67-0.18-0.96
		C209.11,137.05,208.94,136.8,208.72,136.57z"/>
	<path class="st1" d="M355.63,136.57c-0.22-0.22-0.48-0.39-0.77-0.51s-0.62-0.18-0.98-0.18c-0.35,0-0.67,0.06-0.97,0.18
		s-0.56,0.29-0.78,0.51c-0.22,0.22-0.39,0.48-0.52,0.77s-0.18,0.61-0.18,0.96c0,0.35,0.06,0.67,0.18,0.96s0.29,0.55,0.52,0.77
		c0.22,0.22,0.48,0.39,0.78,0.51s0.62,0.18,0.97,0.18c0.35,0,0.68-0.06,0.98-0.18s0.55-0.29,0.77-0.51
		c0.22-0.22,0.39-0.47,0.51-0.77c0.12-0.29,0.18-0.62,0.18-0.96c0-0.35-0.06-0.67-0.18-0.96
		C356.02,137.05,355.85,136.8,355.63,136.57z"/>
	<path class="st2" d="M196.66,136.57c0.22-0.22,0.48-0.38,0.79-0.5c0.3-0.12,0.63-0.18,0.99-0.18c0.34,0,0.66,0.06,0.96,0.18
		c0.3,0.12,0.57,0.31,0.81,0.56l0.58-0.57c-0.29-0.32-0.64-0.57-1.05-0.73c-0.41-0.17-0.86-0.25-1.35-0.25
		c-0.48,0-0.92,0.08-1.33,0.24c-0.4,0.16-0.76,0.38-1.06,0.67c-0.3,0.29-0.53,0.63-0.7,1.02c-0.17,0.39-0.25,0.82-0.25,1.29
		c0,0.47,0.08,0.9,0.25,1.29c0.17,0.39,0.4,0.73,0.7,1.02c0.3,0.29,0.65,0.52,1.05,0.68c0.4,0.16,0.85,0.24,1.33,0.24
		c0.49,0,0.94-0.08,1.35-0.25c0.41-0.17,0.76-0.41,1.05-0.74l-0.58-0.57c-0.24,0.26-0.51,0.45-0.81,0.57
		c-0.3,0.12-0.62,0.18-0.96,0.18c-0.35,0-0.68-0.06-0.99-0.18c-0.3-0.12-0.57-0.29-0.79-0.5c-0.22-0.22-0.39-0.47-0.52-0.77
		s-0.18-0.62-0.18-0.97c0-0.35,0.06-0.67,0.18-0.97S196.44,136.78,196.66,136.57z"/>
	<path class="st2" d="M209.37,135.99c-0.3-0.29-0.65-0.52-1.06-0.67c-0.41-0.16-0.85-0.24-1.33-0.24c-0.49,0-0.93,0.08-1.34,0.24
		c-0.41,0.16-0.76,0.39-1.06,0.68s-0.53,0.63-0.7,1.02c-0.17,0.39-0.25,0.82-0.25,1.28c0,0.46,0.08,0.89,0.25,1.28
		c0.17,0.39,0.4,0.73,0.7,1.02s0.66,0.52,1.07,0.68s0.86,0.24,1.34,0.24c0.48,0,0.92-0.08,1.33-0.24c0.41-0.16,0.76-0.38,1.06-0.68
		c0.3-0.29,0.53-0.63,0.7-1.02c0.17-0.39,0.25-0.82,0.25-1.29c0-0.46-0.08-0.89-0.25-1.28C209.9,136.63,209.67,136.29,209.37,135.99
		z M209.23,139.27c-0.12,0.29-0.29,0.55-0.51,0.77c-0.22,0.22-0.48,0.39-0.77,0.51s-0.62,0.18-0.98,0.18
		c-0.35,0-0.67-0.06-0.97-0.18s-0.56-0.29-0.78-0.51c-0.22-0.22-0.39-0.47-0.52-0.77s-0.18-0.62-0.18-0.96
		c0-0.35,0.06-0.67,0.18-0.96s0.29-0.55,0.52-0.77c0.22-0.22,0.48-0.39,0.78-0.51s0.62-0.18,0.97-0.18c0.35,0,0.68,0.06,0.98,0.18
		s0.55,0.29,0.77,0.51s0.39,0.48,0.51,0.77c0.12,0.29,0.18,0.61,0.18,0.96C209.41,138.65,209.35,138.97,209.23,139.27z"/>
	<polygon class="st2" points="218.74,140.33 218.35,139.85 218.35,140.33 	"/>
	<polygon class="st2" points="214.35,136.28 214.73,136.76 214.73,136.28 	"/>
	<polygon class="st2" points="218.35,139.85 218.74,140.33 218.35,140.33 218.35,139.85 214.57,135.15 213.83,135.15 213.83,141.45 
		214.73,141.45 214.73,136.76 214.35,136.28 214.73,136.28 214.73,136.76 218.51,141.45 219.25,141.45 219.25,135.15 218.35,135.15 
			"/>
	<polygon class="st2" points="224.18,138.63 224.1,138.63 224.1,137.87 224.18,137.87 224.18,135.94 227.73,135.94 227.73,135.15 
		223.28,135.15 223.28,141.45 227.85,141.45 227.85,140.67 224.18,140.67 	"/>
	<rect x="224.1" y="137.87" class="st2" width="0.08" height="0.76"/>
	<rect x="224.18" y="137.87" class="st2" width="3.16" height="0.76"/>
	<path class="st2" d="M232.54,136.57c0.22-0.22,0.48-0.38,0.79-0.5s0.63-0.18,0.99-0.18c0.34,0,0.66,0.06,0.96,0.18
		c0.3,0.12,0.57,0.31,0.81,0.56l0.58-0.57c-0.29-0.32-0.64-0.57-1.05-0.73s-0.86-0.25-1.34-0.25c-0.48,0-0.92,0.08-1.33,0.24
		c-0.41,0.16-0.76,0.38-1.06,0.67c-0.3,0.29-0.53,0.63-0.7,1.02c-0.17,0.39-0.25,0.82-0.25,1.29c0,0.47,0.08,0.9,0.25,1.29
		c0.17,0.39,0.4,0.73,0.7,1.02s0.65,0.52,1.05,0.68c0.41,0.16,0.85,0.24,1.33,0.24c0.49,0,0.94-0.08,1.35-0.25s0.76-0.41,1.05-0.74
		l-0.58-0.57c-0.24,0.26-0.51,0.45-0.81,0.57c-0.3,0.12-0.62,0.18-0.96,0.18c-0.35,0-0.68-0.06-0.99-0.18s-0.57-0.29-0.79-0.5
		c-0.22-0.22-0.39-0.47-0.52-0.77s-0.18-0.62-0.18-0.97c0-0.35,0.06-0.67,0.18-0.97S232.32,136.78,232.54,136.57z"/>
	<polygon class="st2" points="239.11,135.94 241.27,135.94 241.27,141.45 242.16,141.45 242.16,135.94 244.32,135.94 244.32,135.15 
		239.11,135.15 	"/>
	<polygon class="st2" points="251.49,139.16 251.14,139.16 251.45,139.88 251.75,139.88 	"/>
	<polygon class="st2" points="249.34,135.15 246.49,141.45 247.41,141.45 248.1,139.88 247.7,139.88 247.94,139.16 248.42,139.16 
		249.78,136.07 249.6,135.66 249.96,135.66 249.78,136.07 251.14,139.16 251.49,139.16 251.75,139.88 251.45,139.88 252.15,141.45 
		253.09,141.45 250.23,135.15 	"/>
	<polygon class="st2" points="247.94,139.16 247.7,139.88 248.1,139.88 248.42,139.16 	"/>
	<polygon class="st2" points="249.6,135.66 249.78,136.07 249.96,135.66 	"/>
	<polygon class="st2" points="248.42,139.16 248.1,139.88 251.45,139.88 251.14,139.16 	"/>
	<polygon class="st2" points="256.68,136.28 257.07,136.76 257.07,136.28 	"/>
	<polygon class="st2" points="261.07,140.33 260.69,139.85 260.69,140.33 	"/>
	<polygon class="st2" points="260.69,139.85 261.07,140.33 260.69,140.33 260.69,139.85 256.91,135.15 256.17,135.15 256.17,141.45 
		257.07,141.45 257.07,136.76 256.68,136.28 257.07,136.28 257.07,136.76 260.85,141.45 261.59,141.45 261.59,135.15 260.69,135.15 
			"/>
	<path class="st2" d="M270.05,135.55c-0.51-0.26-1.11-0.4-1.78-0.4h-2.65v6.3h2.65c0.67,0,1.26-0.13,1.78-0.4
		c0.51-0.26,0.91-0.63,1.2-1.11s0.43-1.02,0.43-1.65s-0.14-1.17-0.43-1.65S270.56,135.81,270.05,135.55z M270.46,139.54
		c-0.21,0.36-0.51,0.63-0.89,0.83s-0.83,0.3-1.35,0.3h-1.7v-4.73h1.7c0.52,0,0.97,0.1,1.35,0.3c0.38,0.2,0.68,0.47,0.89,0.83
		c0.21,0.35,0.31,0.77,0.31,1.24C270.77,138.77,270.67,139.18,270.46,139.54z"/>
	<path class="st2" d="M280.43,135.99c-0.3-0.29-0.65-0.52-1.06-0.67c-0.41-0.16-0.85-0.24-1.33-0.24c-0.49,0-0.93,0.08-1.34,0.24
		c-0.41,0.16-0.76,0.39-1.06,0.68s-0.53,0.63-0.7,1.02c-0.17,0.39-0.25,0.82-0.25,1.28c0,0.46,0.08,0.89,0.25,1.28
		c0.17,0.39,0.4,0.73,0.7,1.02s0.66,0.52,1.07,0.68s0.86,0.24,1.34,0.24c0.48,0,0.92-0.08,1.33-0.24c0.41-0.16,0.76-0.38,1.06-0.68
		c0.3-0.29,0.53-0.63,0.7-1.02c0.17-0.39,0.25-0.82,0.25-1.29c0-0.46-0.08-0.89-0.25-1.28
		C280.97,136.63,280.73,136.29,280.43,135.99z M280.29,139.27c-0.12,0.29-0.29,0.55-0.51,0.77c-0.22,0.22-0.48,0.39-0.77,0.51
		s-0.62,0.18-0.98,0.18c-0.35,0-0.67-0.06-0.97-0.18s-0.56-0.29-0.78-0.51c-0.22-0.22-0.39-0.47-0.52-0.77s-0.18-0.62-0.18-0.96
		c0-0.35,0.06-0.67,0.18-0.96s0.29-0.55,0.52-0.77c0.22-0.22,0.48-0.39,0.78-0.51s0.62-0.18,0.97-0.18c0.35,0,0.68,0.06,0.98,0.18
		s0.55,0.29,0.77,0.51s0.39,0.48,0.51,0.77c0.12,0.29,0.18,0.61,0.18,0.96C280.48,138.65,280.42,138.97,280.29,139.27z"/>
	<polygon class="st2" points="290.36,138.63 290.28,138.63 290.28,137.87 290.36,137.87 290.36,135.94 293.9,135.94 293.9,135.15 
		289.46,135.15 289.46,141.45 294.03,141.45 294.03,140.67 290.36,140.67 	"/>
	<rect x="290.36" y="137.87" class="st2" width="3.16" height="0.76"/>
	<rect x="290.28" y="137.87" class="st2" width="0.08" height="0.76"/>
	<path class="st2" d="M302.06,135.55c-0.51-0.26-1.11-0.4-1.78-0.4h-2.65v6.3h2.65c0.67,0,1.26-0.13,1.78-0.4
		c0.51-0.26,0.91-0.63,1.2-1.11s0.43-1.02,0.43-1.65s-0.14-1.17-0.43-1.65S302.58,135.81,302.06,135.55z M302.47,139.54
		c-0.21,0.36-0.51,0.63-0.89,0.83s-0.83,0.3-1.35,0.3h-1.7v-4.73h1.7c0.52,0,0.97,0.1,1.35,0.3c0.38,0.2,0.68,0.47,0.89,0.83
		c0.21,0.35,0.31,0.77,0.31,1.24C302.79,138.77,302.68,139.18,302.47,139.54z"/>
	<path class="st2" d="M311.61,138.7c0,0.7-0.15,1.21-0.46,1.54c-0.31,0.32-0.75,0.49-1.32,0.49c-0.56,0-1-0.16-1.31-0.49
		c-0.31-0.32-0.46-0.84-0.46-1.54v-3.55h-0.9v3.58c0,0.91,0.24,1.6,0.71,2.08c0.47,0.47,1.12,0.71,1.95,0.71
		c0.83,0,1.49-0.24,1.96-0.71c0.47-0.47,0.71-1.17,0.71-2.08v-3.58h-0.87V138.7z"/>
	<path class="st2" d="M317.56,136.57c0.22-0.22,0.48-0.38,0.79-0.5s0.63-0.18,0.99-0.18c0.34,0,0.66,0.06,0.96,0.18
		c0.3,0.12,0.57,0.31,0.81,0.56l0.58-0.57c-0.29-0.32-0.64-0.57-1.05-0.73s-0.86-0.25-1.34-0.25c-0.48,0-0.92,0.08-1.33,0.24
		c-0.41,0.16-0.76,0.38-1.06,0.67c-0.3,0.29-0.53,0.63-0.7,1.02c-0.17,0.39-0.25,0.82-0.25,1.29c0,0.47,0.08,0.9,0.25,1.29
		c0.17,0.39,0.4,0.73,0.7,1.02s0.65,0.52,1.05,0.68c0.41,0.16,0.85,0.24,1.33,0.24c0.49,0,0.94-0.08,1.35-0.25s0.76-0.41,1.05-0.74
		l-0.58-0.57c-0.24,0.26-0.51,0.45-0.81,0.57c-0.3,0.12-0.62,0.18-0.96,0.18c-0.35,0-0.68-0.06-0.99-0.18s-0.57-0.29-0.79-0.5
		c-0.22-0.22-0.39-0.47-0.52-0.77s-0.18-0.62-0.18-0.97c0-0.35,0.06-0.67,0.18-0.97S317.33,136.78,317.56,136.57z"/>
	<polygon class="st2" points="326.93,135.15 324.07,141.45 325,141.45 325.69,139.88 325.29,139.88 325.53,139.16 326.01,139.16 
		327.37,136.07 327.19,135.66 327.55,135.66 327.37,136.07 328.73,139.16 329.08,139.16 329.34,139.88 329.04,139.88 329.73,141.45 
		330.68,141.45 327.82,135.15 	"/>
	<polygon class="st2" points="327.19,135.66 327.37,136.07 327.55,135.66 	"/>
	<polygon class="st2" points="326.01,139.16 325.69,139.88 329.04,139.88 328.73,139.16 	"/>
	<polygon class="st2" points="325.53,139.16 325.29,139.88 325.69,139.88 326.01,139.16 	"/>
	<polygon class="st2" points="329.08,139.16 328.73,139.16 329.04,139.88 329.34,139.88 	"/>
	<path class="st2" d="M336.24,141.5l-0.2,0.78h0.24c0.18,0,0.31,0.03,0.39,0.09c0.08,0.06,0.12,0.15,0.12,0.26
		c0,0.11-0.04,0.2-0.12,0.27c-0.08,0.06-0.21,0.09-0.38,0.09c-0.11,0-0.22-0.01-0.32-0.04c-0.1-0.02-0.2-0.06-0.29-0.12l-0.19,0.44
		c0.11,0.07,0.24,0.12,0.37,0.15c0.13,0.03,0.28,0.05,0.43,0.05c0.34,0,0.61-0.07,0.81-0.22c0.2-0.15,0.31-0.35,0.31-0.6
		c0-0.2-0.07-0.37-0.2-0.5c-0.13-0.14-0.33-0.22-0.58-0.24l0.1-0.39c-0.05,0-0.1,0.01-0.16,0.01
		C336.46,141.52,336.35,141.5,336.24,141.5z"/>
	<path class="st2" d="M334.85,136.57c0.22-0.22,0.48-0.38,0.79-0.5s0.63-0.18,0.99-0.18c0.34,0,0.66,0.06,0.96,0.18
		c0.3,0.12,0.57,0.31,0.81,0.56l0.58-0.57c-0.29-0.32-0.64-0.57-1.05-0.73s-0.86-0.25-1.34-0.25c-0.48,0-0.92,0.08-1.33,0.24
		c-0.41,0.16-0.76,0.38-1.06,0.67c-0.3,0.29-0.53,0.63-0.7,1.02c-0.17,0.39-0.25,0.82-0.25,1.29c0,0.47,0.08,0.9,0.25,1.29
		c0.17,0.39,0.4,0.73,0.7,1.02s0.65,0.52,1.05,0.68c0.31,0.12,0.64,0.18,0.99,0.21l0.03-0.11h0.5l-0.03,0.12
		c0.43-0.02,0.83-0.09,1.2-0.24c0.41-0.17,0.76-0.41,1.05-0.74l-0.58-0.57c-0.24,0.26-0.51,0.45-0.81,0.57
		c-0.3,0.12-0.62,0.18-0.96,0.18c-0.35,0-0.68-0.06-0.99-0.18s-0.57-0.29-0.79-0.5c-0.22-0.22-0.39-0.47-0.52-0.77
		s-0.18-0.62-0.18-0.97c0-0.35,0.06-0.67,0.18-0.97S334.62,136.78,334.85,136.57z"/>
	<path class="st2" d="M336.27,141.39l-0.03,0.11c0.11,0.01,0.22,0.03,0.33,0.03c0.05,0,0.1-0.01,0.16-0.01l0.03-0.12H336.27z"/>
	<polygon class="st2" points="344.48,135.66 344.66,136.07 344.84,135.66 	"/>
	<polygon class="st2" points="344.22,135.15 341.36,141.45 342.29,141.45 342.98,139.88 342.58,139.88 342.82,139.16 343.3,139.16 
		344.66,136.07 344.48,135.66 344.84,135.66 344.66,136.07 346.02,139.16 346.37,139.16 346.63,139.88 346.33,139.88 347.02,141.45 
		347.97,141.45 345.11,135.15 	"/>
	<polygon class="st2" points="343.3,139.16 342.98,139.88 346.33,139.88 346.02,139.16 	"/>
	<polygon class="st2" points="342.82,139.16 342.58,139.88 342.98,139.88 343.3,139.16 	"/>
	<path class="st2" d="M343.7,134.18c0.08-0.12,0.19-0.18,0.32-0.18c0.11,0,0.21,0.03,0.31,0.1c0.1,0.07,0.19,0.14,0.29,0.22
		c0.1,0.08,0.21,0.16,0.33,0.23c0.12,0.07,0.27,0.1,0.43,0.1c0.28,0,0.5-0.11,0.67-0.34c0.17-0.22,0.25-0.5,0.26-0.82h-0.53
		c-0.01,0.16-0.05,0.29-0.13,0.41c-0.08,0.12-0.18,0.18-0.31,0.18c-0.11,0-0.21-0.03-0.31-0.1c-0.1-0.07-0.19-0.14-0.29-0.23
		c-0.1-0.08-0.21-0.16-0.33-0.22s-0.27-0.1-0.44-0.1c-0.28,0-0.51,0.11-0.67,0.34c-0.17,0.23-0.25,0.5-0.26,0.83h0.54
		C343.57,134.44,343.62,134.3,343.7,134.18z"/>
	<polygon class="st2" points="346.37,139.16 346.02,139.16 346.33,139.88 346.63,139.88 	"/>
	<path class="st2" d="M356.28,135.99c-0.3-0.29-0.65-0.52-1.06-0.67c-0.41-0.16-0.85-0.24-1.33-0.24c-0.49,0-0.93,0.08-1.34,0.24
		c-0.41,0.16-0.76,0.39-1.06,0.68s-0.53,0.63-0.7,1.02c-0.17,0.39-0.25,0.82-0.25,1.28c0,0.46,0.08,0.89,0.25,1.28
		c0.17,0.39,0.4,0.73,0.7,1.02s0.66,0.52,1.07,0.68s0.86,0.24,1.34,0.24c0.48,0,0.92-0.08,1.33-0.24c0.41-0.16,0.76-0.38,1.06-0.68
		c0.3-0.29,0.53-0.63,0.7-1.02c0.17-0.39,0.25-0.82,0.25-1.29c0-0.46-0.08-0.89-0.25-1.28
		C356.82,136.63,356.58,136.29,356.28,135.99z M356.14,139.27c-0.12,0.29-0.29,0.55-0.51,0.77c-0.22,0.22-0.48,0.39-0.77,0.51
		s-0.62,0.18-0.98,0.18c-0.35,0-0.67-0.06-0.97-0.18s-0.56-0.29-0.78-0.51c-0.22-0.22-0.39-0.47-0.52-0.77s-0.18-0.62-0.18-0.96
		c0-0.35,0.06-0.67,0.18-0.96s0.29-0.55,0.52-0.77c0.22-0.22,0.48-0.39,0.78-0.51s0.62-0.18,0.97-0.18c0.35,0,0.68,0.06,0.98,0.18
		s0.55,0.29,0.77,0.51s0.39,0.48,0.51,0.77c0.12,0.29,0.18,0.61,0.18,0.96C356.33,138.65,356.27,138.97,356.14,139.27z"/>
	<rect x="366.13" y="137.87" class="st2" width="0.08" height="0.76"/>
	<polygon class="st2" points="366.21,138.63 366.13,138.63 366.13,137.87 366.21,137.87 366.21,135.94 369.76,135.94 369.76,135.15 
		365.31,135.15 365.31,141.45 369.88,141.45 369.88,140.67 366.21,140.67 	"/>
	<rect x="366.21" y="137.87" class="st2" width="3.16" height="0.76"/>
	<polygon class="st2" points="377.14,135.94 379.3,135.94 379.3,141.45 380.19,141.45 380.19,135.94 382.35,135.94 382.35,135.15 
		377.14,135.15 	"/>
	<polygon class="st2" points="386.37,138.77 385.97,138.77 386.33,139.16 386.37,139.12 	"/>
	<path class="st2" d="M389.04,139.17h-0.96l0.24,0.34c0.31-0.03,0.59-0.08,0.84-0.17L389.04,139.17z"/>
	<polygon class="st2" points="386.37,139.12 386.33,139.16 386.37,139.21 	"/>
	<polygon class="st2" points="386.33,139.16 385.97,139.54 386.37,139.54 386.37,139.21 	"/>
	<polygon class="st2" points="385.97,135.94 386.37,135.94 386.37,135.49 	"/>
	<path class="st2" d="M389.04,139.17l0.12,0.16c0.06-0.02,0.13-0.03,0.18-0.06c0.39-0.17,0.69-0.42,0.9-0.75s0.32-0.72,0.32-1.17
		c0-0.69-0.23-1.23-0.7-1.62c-0.47-0.39-1.11-0.58-1.93-0.58h-2.46v6.3h0.9v-1.92h-0.4l0.36-0.37l-0.36-0.39h0.4v-2.83h-0.4
		l0.4-0.45v0.45h1.53c0.58,0,1.01,0.12,1.31,0.37c0.3,0.25,0.45,0.59,0.45,1.04c0,0.45-0.15,0.8-0.45,1.05s-0.73,0.37-1.31,0.37
		h-1.53v0.35v0.09v0.32h1.56c0.14,0,0.26-0.02,0.39-0.03l-0.24-0.34H389.04z"/>
	<path class="st2" d="M388.32,139.5l1.37,1.95h0.98l-1.5-2.12C388.91,139.42,388.63,139.48,388.32,139.5z"/>
	<polygon class="st2" points="398.21,139.16 397.85,139.16 398.17,139.88 398.47,139.88 	"/>
	<polygon class="st2" points="396.05,135.15 393.2,141.45 394.13,141.45 394.82,139.88 394.42,139.88 394.66,139.16 395.14,139.16 
		396.5,136.07 396.32,135.66 396.68,135.66 396.5,136.07 397.85,139.16 398.21,139.16 398.47,139.88 398.17,139.88 398.86,141.45 
		399.81,141.45 396.95,135.15 	"/>
	<polygon class="st2" points="394.66,139.16 394.42,139.88 394.82,139.88 395.14,139.16 	"/>
	<polygon class="st2" points="396.32,135.66 396.5,136.07 396.68,135.66 	"/>
	<polygon class="st2" points="395.14,139.16 394.82,139.88 398.17,139.88 397.85,139.16 	"/>
	<polygon class="st2" points="407.4,139.85 407.79,140.33 407.4,140.33 407.4,139.85 403.62,135.15 402.89,135.15 402.89,141.45 
		403.79,141.45 403.79,136.76 403.4,136.28 403.79,136.28 403.79,136.76 407.57,141.45 408.3,141.45 408.3,135.15 407.4,135.15 	"/>
	<polygon class="st2" points="403.4,136.28 403.79,136.76 403.79,136.28 	"/>
	<polygon class="st2" points="407.79,140.33 407.4,139.85 407.4,140.33 	"/>
	<path class="st2" d="M415.86,138.42c-0.23-0.13-0.47-0.23-0.75-0.31c-0.27-0.08-0.54-0.15-0.81-0.21
		c-0.27-0.06-0.52-0.13-0.74-0.21c-0.22-0.08-0.41-0.18-0.55-0.32c-0.14-0.13-0.21-0.31-0.21-0.53c0-0.19,0.05-0.35,0.16-0.5
		c0.1-0.15,0.27-0.27,0.5-0.36c0.23-0.09,0.52-0.14,0.87-0.14c0.28,0,0.57,0.04,0.87,0.12c0.3,0.08,0.58,0.21,0.86,0.39l0.3-0.72
		c-0.26-0.18-0.58-0.32-0.94-0.41c-0.36-0.1-0.72-0.14-1.09-0.14c-0.55,0-1.01,0.08-1.36,0.25c-0.36,0.17-0.62,0.38-0.79,0.66
		c-0.17,0.27-0.26,0.57-0.26,0.9c0,0.34,0.07,0.61,0.21,0.82c0.14,0.21,0.32,0.38,0.54,0.51s0.47,0.23,0.75,0.31
		c0.27,0.08,0.54,0.15,0.81,0.21c0.27,0.06,0.52,0.13,0.74,0.21c0.23,0.08,0.41,0.19,0.55,0.32c0.14,0.13,0.21,0.31,0.21,0.52
		c0,0.19-0.05,0.35-0.16,0.5c-0.11,0.15-0.28,0.26-0.5,0.35c-0.23,0.08-0.53,0.13-0.89,0.13c-0.4,0-0.79-0.07-1.16-0.21
		c-0.37-0.14-0.68-0.31-0.92-0.52l-0.33,0.7c0.25,0.23,0.6,0.42,1.04,0.57c0.44,0.15,0.9,0.22,1.38,0.22c0.55,0,1.01-0.08,1.37-0.25
		s0.63-0.38,0.81-0.66c0.17-0.27,0.26-0.57,0.26-0.89c0-0.33-0.07-0.6-0.21-0.81C416.27,138.71,416.08,138.54,415.86,138.42z"/>
	<polygon class="st2" points="420.07,141.45 420.97,141.45 420.97,138.91 420.88,138.91 420.88,138.13 420.97,138.13 420.97,135.94 
		424.51,135.94 424.51,135.15 420.07,135.15 	"/>
	<rect x="420.97" y="138.13" class="st2" width="3.16" height="0.77"/>
	<rect x="420.88" y="138.13" class="st2" width="0.09" height="0.77"/>
	<path class="st2" d="M433.16,135.99c-0.3-0.29-0.65-0.52-1.06-0.67c-0.41-0.16-0.85-0.24-1.33-0.24c-0.49,0-0.93,0.08-1.34,0.24
		c-0.41,0.16-0.76,0.39-1.06,0.68s-0.53,0.63-0.7,1.02c-0.17,0.39-0.25,0.82-0.25,1.28c0,0.46,0.08,0.89,0.25,1.28
		c0.17,0.39,0.4,0.73,0.7,1.02s0.66,0.52,1.07,0.68s0.86,0.24,1.34,0.24c0.48,0,0.92-0.08,1.33-0.24c0.41-0.16,0.76-0.38,1.06-0.68
		c0.3-0.29,0.53-0.63,0.7-1.02c0.17-0.39,0.25-0.82,0.25-1.29c0-0.46-0.08-0.89-0.25-1.28
		C433.69,136.63,433.46,136.29,433.16,135.99z M433.02,139.27c-0.12,0.29-0.29,0.55-0.51,0.77c-0.22,0.22-0.48,0.39-0.77,0.51
		s-0.62,0.18-0.98,0.18c-0.35,0-0.67-0.06-0.97-0.18s-0.56-0.29-0.78-0.51c-0.22-0.22-0.39-0.47-0.52-0.77s-0.18-0.62-0.18-0.96
		c0-0.35,0.06-0.67,0.18-0.96s0.29-0.55,0.52-0.77c0.22-0.22,0.48-0.39,0.78-0.51s0.62-0.18,0.97-0.18c0.35,0,0.68,0.06,0.98,0.18
		s0.55,0.29,0.77,0.51s0.39,0.48,0.51,0.77c0.12,0.29,0.18,0.61,0.18,0.96C433.21,138.65,433.14,138.97,433.02,139.27z"/>
	<path class="st2" d="M441.2,139.17h-0.96l0.24,0.34c0.31-0.03,0.59-0.08,0.84-0.17L441.2,139.17z"/>
	<polygon class="st2" points="438.48,139.16 438.12,139.54 438.52,139.54 438.52,139.21 	"/>
	<path class="st2" d="M441.2,139.17l0.12,0.16c0.06-0.02,0.13-0.03,0.18-0.06c0.39-0.17,0.69-0.42,0.9-0.75s0.32-0.72,0.32-1.17
		c0-0.69-0.23-1.23-0.7-1.62c-0.47-0.39-1.11-0.58-1.93-0.58h-2.46v6.3h0.9v-1.92h-0.4l0.36-0.37l-0.36-0.39h0.4v-2.83h-0.4
		l0.4-0.45v0.45h1.53c0.58,0,1.01,0.12,1.31,0.37c0.3,0.25,0.45,0.59,0.45,1.04c0,0.45-0.15,0.8-0.45,1.05s-0.73,0.37-1.31,0.37
		h-1.53v0.35v0.09v0.32h1.56c0.14,0,0.26-0.02,0.39-0.03l-0.24-0.34H441.2z"/>
	<path class="st2" d="M440.47,139.5l1.37,1.95h0.98l-1.5-2.12C441.06,139.42,440.78,139.48,440.47,139.5z"/>
	<polygon class="st2" points="438.12,135.94 438.52,135.94 438.52,135.49 	"/>
	<polygon class="st2" points="438.52,139.12 438.48,139.16 438.52,139.21 	"/>
	<polygon class="st2" points="438.52,138.77 438.12,138.77 438.48,139.16 438.52,139.12 	"/>
	<polygon class="st2" points="452.27,135.15 449.68,139.58 449.87,139.91 449.48,139.91 449.68,139.58 447.05,135.15 446.31,135.15 
		446.31,141.45 447.17,141.45 447.17,136.89 446.95,136.51 447.17,136.51 447.17,136.89 449.45,140.69 449.87,140.69 452.14,136.86 
		452.14,136.51 452.35,136.51 452.14,136.86 452.15,141.45 453.02,141.45 453.01,135.15 	"/>
	<polygon class="st2" points="452.14,136.51 452.14,136.86 452.35,136.51 	"/>
	<polygon class="st2" points="449.87,139.91 449.68,139.58 449.48,139.91 	"/>
	<polygon class="st2" points="446.95,136.51 447.17,136.89 447.17,136.51 	"/>
	<polygon class="st2" points="458.95,135.15 456.09,141.45 457.02,141.45 457.71,139.88 457.31,139.88 457.55,139.16 458.03,139.16 
		459.39,136.07 459.21,135.66 459.57,135.66 459.39,136.07 460.75,139.16 461.1,139.16 461.36,139.88 461.06,139.88 461.75,141.45 
		462.7,141.45 459.84,135.15 	"/>
	<polygon class="st2" points="461.1,139.16 460.75,139.16 461.06,139.88 461.36,139.88 	"/>
	<polygon class="st2" points="458.03,139.16 457.71,139.88 461.06,139.88 460.75,139.16 	"/>
	<polygon class="st2" points="457.55,139.16 457.31,139.88 457.71,139.88 458.03,139.16 	"/>
	<polygon class="st2" points="459.21,135.66 459.39,136.07 459.57,135.66 	"/>
	<path class="st2" d="M468.26,141.5l-0.2,0.78h0.24c0.18,0,0.31,0.03,0.39,0.09c0.08,0.06,0.12,0.15,0.12,0.26
		c0,0.11-0.04,0.2-0.12,0.27c-0.08,0.06-0.21,0.09-0.38,0.09c-0.11,0-0.22-0.01-0.32-0.04c-0.1-0.02-0.2-0.06-0.29-0.12l-0.19,0.44
		c0.11,0.07,0.24,0.12,0.37,0.15c0.13,0.03,0.28,0.05,0.43,0.05c0.34,0,0.61-0.07,0.81-0.22c0.2-0.15,0.31-0.35,0.31-0.6
		c0-0.2-0.07-0.37-0.2-0.5c-0.13-0.14-0.33-0.22-0.58-0.24l0.1-0.39c-0.05,0-0.1,0.01-0.16,0.01
		C468.48,141.52,468.37,141.5,468.26,141.5z"/>
	<path class="st2" d="M466.87,136.57c0.22-0.22,0.48-0.38,0.79-0.5s0.63-0.18,0.99-0.18c0.34,0,0.66,0.06,0.96,0.18
		c0.3,0.12,0.57,0.31,0.81,0.56l0.58-0.57c-0.29-0.32-0.64-0.57-1.05-0.73s-0.86-0.25-1.34-0.25c-0.48,0-0.92,0.08-1.33,0.24
		c-0.41,0.16-0.76,0.38-1.06,0.67c-0.3,0.29-0.53,0.63-0.7,1.02c-0.17,0.39-0.25,0.82-0.25,1.29c0,0.47,0.08,0.9,0.25,1.29
		c0.17,0.39,0.4,0.73,0.7,1.02s0.65,0.52,1.05,0.68c0.31,0.12,0.64,0.18,0.99,0.21l0.03-0.11h0.5l-0.03,0.12
		c0.43-0.02,0.83-0.09,1.2-0.24c0.41-0.17,0.76-0.41,1.05-0.74l-0.58-0.57c-0.24,0.26-0.51,0.45-0.81,0.57
		c-0.3,0.12-0.62,0.18-0.96,0.18c-0.35,0-0.68-0.06-0.99-0.18s-0.57-0.29-0.79-0.5c-0.22-0.22-0.39-0.47-0.52-0.77
		s-0.18-0.62-0.18-0.97c0-0.35,0.06-0.67,0.18-0.97S466.64,136.78,466.87,136.57z"/>
	<path class="st2" d="M468.29,141.39l-0.03,0.11c0.11,0.01,0.22,0.03,0.33,0.03c0.05,0,0.1-0.01,0.16-0.01l0.03-0.12H468.29z"/>
	<polygon class="st2" points="476.23,135.15 473.38,141.45 474.31,141.45 475,139.88 474.6,139.88 474.84,139.16 475.32,139.16 
		476.68,136.07 476.5,135.66 476.86,135.66 476.68,136.07 478.03,139.16 478.39,139.16 478.65,139.88 478.35,139.88 479.04,141.45 
		479.99,141.45 477.13,135.15 	"/>
	<polygon class="st2" points="478.39,139.16 478.03,139.16 478.35,139.88 478.65,139.88 	"/>
	<path class="st2" d="M475.72,134.18c0.08-0.12,0.19-0.18,0.32-0.18c0.11,0,0.21,0.03,0.31,0.1c0.1,0.07,0.19,0.14,0.29,0.22
		c0.1,0.08,0.21,0.16,0.33,0.23c0.12,0.07,0.27,0.1,0.43,0.1c0.28,0,0.5-0.11,0.67-0.34c0.17-0.22,0.25-0.5,0.26-0.82h-0.53
		c-0.01,0.16-0.05,0.29-0.13,0.41c-0.08,0.12-0.18,0.18-0.31,0.18c-0.11,0-0.21-0.03-0.31-0.1c-0.1-0.07-0.19-0.14-0.29-0.23
		c-0.1-0.08-0.21-0.16-0.33-0.22s-0.27-0.1-0.44-0.1c-0.28,0-0.51,0.11-0.67,0.34c-0.17,0.23-0.25,0.5-0.26,0.83h0.54
		C475.59,134.44,475.64,134.3,475.72,134.18z"/>
	<polygon class="st2" points="474.84,139.16 474.6,139.88 475,139.88 475.32,139.16 	"/>
	<polygon class="st2" points="476.5,135.66 476.68,136.07 476.86,135.66 	"/>
	<polygon class="st2" points="475.32,139.16 475,139.88 478.35,139.88 478.03,139.16 	"/>
	<path class="st2" d="M489,137.02c-0.17-0.39-0.4-0.73-0.7-1.03c-0.3-0.29-0.65-0.52-1.06-0.67c-0.41-0.16-0.85-0.24-1.33-0.24
		c-0.49,0-0.93,0.08-1.34,0.24c-0.41,0.16-0.76,0.39-1.06,0.68s-0.53,0.63-0.7,1.02c-0.17,0.39-0.25,0.82-0.25,1.28
		c0,0.46,0.08,0.89,0.25,1.28c0.17,0.39,0.4,0.73,0.7,1.02s0.66,0.52,1.07,0.68s0.86,0.24,1.34,0.24c0.48,0,0.92-0.08,1.33-0.24
		c0.41-0.16,0.76-0.38,1.06-0.68c0.3-0.29,0.53-0.63,0.7-1.02c0.17-0.39,0.25-0.82,0.25-1.29
		C489.25,137.84,489.17,137.41,489,137.02z M488.17,139.27c-0.12,0.29-0.29,0.55-0.51,0.77c-0.22,0.22-0.48,0.39-0.77,0.51
		s-0.62,0.18-0.98,0.18c-0.35,0-0.67-0.06-0.97-0.18s-0.56-0.29-0.78-0.51c-0.22-0.22-0.39-0.47-0.52-0.77s-0.18-0.62-0.18-0.96
		c0-0.35,0.06-0.67,0.18-0.96s0.29-0.55,0.52-0.77c0.22-0.22,0.48-0.39,0.78-0.51s0.62-0.18,0.97-0.18c0.35,0,0.68,0.06,0.98,0.18
		s0.55,0.29,0.77,0.51s0.39,0.48,0.51,0.77c0.12,0.29,0.18,0.61,0.18,0.96C488.35,138.65,488.29,138.97,488.17,139.27z"/>
</g>
</svg>
